<?xml version="1.0" encoding="UTF-8"?>
<svg width="179px" height="146px" viewBox="0 0 179 146" version="1.1" xmlns="http://www.w3.org/2000/svg" xmlns:xlink="http://www.w3.org/1999/xlink">
    <!-- Generator: Sketch 47.1 (45422) - http://www.bohemiancoding.com/sketch -->
    <title>Page 1</title>
    <desc>Created with Sketch.</desc>
    <defs>
        <polygon id="path-1" points="73.557396 55 0.549812415 55 0.549812415 0.315332491 73.557396 0.315332491"></polygon>
        <polygon id="path-3" points="7.26605191e-16 14.8445758 7.26605191e-16 0.208172321 14.6352024 0.208172321 14.6352024 14.8445758 0 14.8445758"></polygon>
        <polygon id="path-5" points="63.4863 0.427 0.7773 0.427 0.7773 56.7131 63.4863 56.7131 63.4863 0.427"></polygon>
        <polygon id="path-7" points="15.559 0.0424683046 15.559 14.6793195 0.923034626 14.6793195 0.923034626 0.0424683046 15.559 0.0424683046"></polygon>
    </defs>
    <g id="Layouts" stroke="none" stroke-width="1" fill="none" fill-rule="evenodd">
        <g id="768-Rules" transform="translate(-296.000000, -1899.000000)">
            <g id="Group-2" transform="translate(11.000000, 81.000000)">
                <g id="Group" transform="translate(109.000000, 12.000000)">
                    <g id="Page-1" transform="translate(176.000000, 1805.000000)">
                        <path d="M76.3046,112.8363 C82.0616,91.9993 71.1876,70.8133 52.0196,65.5193 C32.8496,60.2223 12.6426,72.8233 6.8866,93.6593 C1.1316,114.4963 10.8916,139.7113 30.0616,145.0073 C49.2286,150.3013 70.5486,133.6733 76.3046,112.8363" id="Fill-1" fill="#EDAE83"></path>
                        <g id="Group-5" transform="translate(4.000000, 91.573000)">
                            <mask id="mask-2" fill="white">
                                <use xlink:href="#path-1"></use>
                            </mask>
                            <g id="Clip-4"></g>
                            <path d="M73.4726,20.5182 C74.4776,16.8782 66.4256,30.7122 55.8846,31.8402 C49.4566,32.5272 41.4596,21.7932 35.9806,19.7222 L34.8496,19.4092 C29.0846,18.3742 16.7126,23.4822 11.5486,19.5912 C3.0816,13.2142 3.2726,-2.7928 2.2676,0.8472 C-3.5804,22.0142 5.8606,48.0712 25.1486,53.8372 L26.2786,54.1512 C45.7916,59.1022 67.6246,41.6832 73.4726,20.5182" id="Fill-3" fill="#A2AAAE" mask="url(#mask-2)"></path>
                        </g>
                        <path d="M46.3447,126.9857 C45.9137,126.9857 45.5117,126.7187 45.3607,126.2927 C44.3607,123.4857 41.0877,120.9437 37.0197,119.8187 C32.9507,118.7007 28.8357,119.1947 26.5367,121.0927 C26.0967,121.4587 25.4327,121.3987 25.0657,120.9517 C24.6987,120.5067 24.7617,119.8477 25.2057,119.4797 C28.0587,117.1287 32.8017,116.4897 37.5747,117.8037 C42.3537,119.1257 46.0907,122.1097 47.3277,125.5897 C47.5227,126.1347 47.2387,126.7327 46.6957,126.9247 C46.5787,126.9677 46.4607,126.9857 46.3447,126.9857" id="Fill-6" fill="#172A38"></path>
                        <path d="M30.6865,95.9623 C31.1425,94.3153 30.1755,92.6113 28.5285,92.1563 C26.8805,91.7013 25.1755,92.6653 24.7195,94.3153 C24.2635,95.9633 25.2315,97.6683 26.8785,98.1233 C28.5275,98.5783 30.2305,97.6103 30.6865,95.9623" id="Fill-8" fill="#172A38"></path>
                        <g id="Group-12" transform="translate(0.000000, 84.573000)">
                            <mask id="mask-4" fill="white">
                                <use xlink:href="#path-3"></use>
                            </mask>
                            <g id="Clip-11"></g>
                            <path d="M14.3691,9.4742 C15.4451,5.5782 13.1611,1.5502 9.2661,0.4742 C5.3711,-0.6018 1.3421,1.6832 0.2651,5.5782 C-0.8099,9.4742 1.4741,13.5022 5.3691,14.5782 C9.2651,15.6552 13.2941,13.3692 14.3691,9.4742" id="Fill-10" fill="#EDAE83" mask="url(#mask-4)"></path>
                        </g>
                        <path d="M59.2841,103.8636 C59.7391,102.2146 58.7731,100.5116 57.1251,100.0556 C55.4771,99.6006 53.7721,100.5656 53.3171,102.2146 C52.8611,103.8636 53.8281,105.5676 55.4761,106.0226 C57.1251,106.4786 58.8291,105.5116 59.2841,103.8636" id="Fill-13" fill="#172A38"></path>
                        <path d="M84.8886,113.5287 C85.9656,109.6337 83.6806,105.6047 79.7846,104.5287 C75.8906,103.4537 71.8616,105.7377 70.7846,109.6327 C69.7096,113.5267 71.9936,117.5567 75.8896,118.6327 C79.7846,119.7087 83.8126,117.4247 84.8886,113.5287" id="Fill-15" fill="#EDAE83"></path>
                        <path d="M7.081,94.1742 C7.081,94.1742 12.434,84.1852 22.391,78.5382 C28.885,74.8552 34.584,73.9872 38.704,74.4212 C40.906,77.6452 44.208,80.1392 48.266,81.2602 C52.317,82.3792 56.428,81.9352 59.968,80.3042 C63.731,82.0452 68.179,85.7172 71.865,92.2172 C77.511,102.1732 76.977,113.4922 76.977,113.4922 C82.867,92.1732 71.741,70.4952 52.13,65.0782 C35.425,60.4632 17.984,69.1562 9.529,85.0002 C7.876,90.0732 7.081,94.1742 7.081,94.1742" id="Fill-17" fill="#A2AAAE"></path>
                        <polygon id="Fill-19" fill="#EDAE83" points="63.9384 103.0179 21.6254 91.3299 23.2954 85.2859 65.6084 96.9739"></polygon>
                        <polygon id="Fill-21" fill="#EDAE83" points="61.1552 113.0921 18.8432 101.4041 20.5132 95.3601 62.8252 107.0481"></polygon>
                        <g id="Group-25" transform="translate(22.000000, 0.573000)">
                            <mask id="mask-6" fill="white">
                                <use xlink:href="#path-5"></use>
                            </mask>
                            <g id="Clip-24"></g>
                            <path d="M63.4863,35.8111 C63.4863,38.6831 60.2163,42.0821 57.2153,42.0821 L17.5003,42.0821 C16.2373,42.0821 14.8243,42.9791 14.0333,44.4311 L10.8283,49.6041 C8.6433,53.9711 7.1093,56.7131 3.9453,56.7131 C1.0463,56.7131 0.7773,51.8931 0.7773,50.3811 L0.7773,6.4941 C0.7773,3.6231 3.8433,0.4261 6.8433,0.4261 L57.0653,0.4261 C60.0663,0.4261 63.4863,3.6791 63.4863,6.5461 L63.4863,35.8111 Z" id="Fill-23" fill="#FE574A" mask="url(#mask-6)"></path>
                        </g>
                        <path d="M72.9462,30.1136 C72.1782,30.1136 71.4422,29.6906 71.0752,28.9586 L66.6742,20.1556 L62.2722,28.9586 C61.5622,30.3746 59.2432,30.3746 58.5332,28.9586 L54.1322,20.1556 L49.7302,28.9586 C49.0202,30.3746 46.7012,30.3746 45.9912,28.9586 L41.5902,20.1556 L37.1892,28.9586 C36.6732,29.9906 35.4172,30.4076 34.3832,29.8926 C33.3512,29.3766 32.9322,28.1216 33.4492,27.0886 L39.7202,14.5466 C40.4302,13.1306 42.7502,13.1306 43.4602,14.5466 L47.8612,23.3486 L52.2612,14.5466 C52.9722,13.1306 55.2912,13.1306 56.0022,14.5466 L60.4032,23.3486 L64.8032,14.5466 C65.5142,13.1306 67.8332,13.1306 68.5442,14.5466 L74.8142,27.0886 C75.3312,28.1216 74.9122,29.3766 73.8802,29.8926 C73.5792,30.0426 73.2602,30.1136 72.9462,30.1136" id="Fill-26" fill="#FFFFFF"></path>
                        <path d="M155.4687,59.6478 C155.4687,44.6688 143.3257,32.5268 128.3467,32.5268 C113.3677,32.5268 101.2257,44.6688 101.2257,59.6478 C101.2257,74.6268 113.3677,86.7698 128.3467,86.7698 C143.3257,86.7698 155.4687,74.6268 155.4687,59.6478" id="Fill-28" fill="#FDCF4D"></path>
                        <path d="M170.6171,80.8138 C164.3461,60.1268 148.9621,59.5798 129.5471,63.8788 C102.1731,69.9428 95.4251,81.0148 101.6951,101.7018 C107.9651,122.3918 129.6881,138.4878 148.7221,132.7178 C167.7531,126.9508 176.8871,101.5018 170.6171,80.8138" id="Fill-30" fill="#EDAE83"></path>
                        <path d="M132.8095,50.6498 C132.8095,50.6498 137.8885,64.3538 139.2305,62.2818 C143.2485,61.7548 148.8395,62.4648 155.2805,65.9098 C165.1435,71.1848 170.6175,80.8138 170.6175,80.8138 C164.8555,61.8058 150.4215,47.9618 132.8095,50.6498" id="Fill-32" fill="#FDCF4D"></path>
                        <path d="M137.2519,115.9076 C133.7189,115.9076 130.4669,114.9406 128.0969,113.0786 C126.2819,111.6516 125.9659,109.0246 127.3909,107.2076 C128.8149,105.3906 131.4439,105.0786 133.2619,106.5016 C134.5009,107.4766 137.4259,108.0406 140.9229,106.9806 C144.4189,105.9226 146.5399,103.8256 147.0319,102.3276 C147.7509,100.1366 150.1119,98.9426 152.3089,99.6586 C154.5009,100.3796 155.6969,102.7416 154.9769,104.9356 C153.5119,109.4026 149.0549,113.2526 143.3479,114.9826 C141.2979,115.6036 139.2309,115.9076 137.2519,115.9076" id="Fill-34" fill="#FE574A"></path>
                        <path d="M123.0419,90.931 C122.5459,89.293 120.8179,88.371 119.1829,88.867 C117.5469,89.363 116.6219,91.09 117.1179,92.727 C117.6139,94.365 119.3429,95.288 120.9789,94.793 C122.6149,94.297 123.5379,92.568 123.0419,90.931" id="Fill-36" fill="#172A38"></path>
                        <path d="M108.2265,98.0326 C107.0545,94.1656 102.9695,91.9796 99.1035,93.1526 C95.2365,94.3246 93.0515,98.4096 94.2235,102.2766 C95.3965,106.1426 99.4815,108.3276 103.3475,107.1546 C107.2145,105.9836 109.3985,101.8986 108.2265,98.0326" id="Fill-38" fill="#EDAE83"></path>
                        <path d="M151.4345,82.3255 C150.9385,80.6885 149.2115,79.7655 147.5755,80.2625 C145.9395,80.7575 145.0145,82.4835 145.5105,84.1215 C146.0065,85.7585 147.7355,86.6825 149.3715,86.1865 C151.0075,85.6905 151.9305,83.9635 151.4345,82.3255" id="Fill-40" fill="#172A38"></path>
                        <g id="Group-44" transform="translate(163.000000, 71.573000)">
                            <mask id="mask-8" fill="white">
                                <use xlink:href="#path-7"></use>
                            </mask>
                            <g id="Clip-43"></g>
                            <path d="M15.2431,5.2379 C14.0701,1.3719 9.9851,-0.8131 6.1181,0.3589 C2.2521,1.5309 0.0681,5.6159 1.2391,9.4819 C2.4111,13.3499 6.4961,15.5349 10.3631,14.3629 C14.2301,13.1899 16.4151,9.1059 15.2431,5.2379" id="Fill-42" fill="#EDAE83" mask="url(#mask-8)"></path>
                        </g>
                        <path d="M114.5439,68.4271 C113.7069,65.6641 110.7889,64.1041 108.0259,64.9421 C105.2639,65.7791 103.7039,68.6961 104.5409,71.4581 C105.3779,74.2211 108.2949,75.7811 111.0589,74.9441 C113.8199,74.1071 115.3809,71.1891 114.5439,68.4271" id="Fill-45" fill="#FDCF4D"></path>
                        <path d="M124.5458,65.3959 C123.7078,62.6329 120.7908,61.0729 118.0278,61.9099 C115.2668,62.7479 113.7068,65.6649 114.5438,68.4269 C115.3808,71.1889 118.2978,72.7499 121.0598,71.9119 C123.8228,71.0749 125.3828,68.1579 124.5458,65.3959" id="Fill-47" fill="#FDCF4D"></path>
                        <path d="M134.5478,62.3646 C133.7108,59.6016 130.7928,58.0416 128.0308,58.8786 C125.2698,59.7156 123.7078,62.6336 124.5458,65.3956 C125.3828,68.1576 128.2998,69.7176 131.0628,68.8806 C133.8248,68.0436 135.3858,65.1256 134.5478,62.3646" id="Fill-49" fill="#FDCF4D"></path>
                        <path d="M144.5497,59.3324 C143.7117,56.5694 140.7947,55.0104 138.0327,55.8474 C135.2717,56.6844 133.7107,59.6024 134.5477,62.3644 C135.3857,65.1254 138.3027,66.6864 141.0647,65.8494 C143.8257,65.0124 145.3877,62.0954 144.5497,59.3324" id="Fill-51" fill="#FDCF4D"></path>
                        <path d="M154.5517,56.3011 C153.7147,53.5371 150.7977,51.9781 148.0357,52.8161 C145.2747,53.6531 143.7117,56.5701 144.5497,59.3321 C145.3877,62.0951 148.3057,63.6551 151.0677,62.8181 C153.8287,61.9811 155.3897,59.0641 154.5517,56.3011" id="Fill-53" fill="#FDCF4D"></path>
                        <path d="M110.9697,114.2865 C117.4397,125.1125 127.5227,131.0595 127.5227,131.0595 C127.5227,131.0595 115.8257,136.0005 107.2007,131.2315 C96.3507,125.2315 91.6277,115.0195 92.3527,98.2355 C92.7957,87.9845 98.7217,75.2135 107.5307,69.9425 C107.5307,69.9425 99.5267,95.1405 110.9697,114.2865" id="Fill-55" fill="#FDCF4D"></path>
                    </g>
                </g>
            </g>
        </g>
    </g>
</svg>