<?xml version="1.0" encoding="UTF-8"?>
<svg width="231px" height="166px" viewBox="0 0 231 166" version="1.1" xmlns="http://www.w3.org/2000/svg" xmlns:xlink="http://www.w3.org/1999/xlink">
    <!-- Generator: Sketch 47.1 (45422) - http://www.bohemiancoding.com/sketch -->
    <title>Page 1</title>
    <desc>Created with Sketch.</desc>
    <defs>
        <polygon id="path-1" points="71.774348 82 0.468369948 82 0.468369948 0.339268294 71.774348 0.339268294"></polygon>
        <polygon id="path-3" points="0.910827851 0 20.3618266 0 20.3618266 18.6650699 0.910827851 18.6650699 0.910827851 0"></polygon>
    </defs>
    <g id="Layouts" stroke="none" stroke-width="1" fill="none" fill-rule="evenodd">
        <g id="1366-About-Us" transform="translate(-569.000000, -276.000000)">
            <g id="Page-1" transform="translate(569.000000, 276.000000)">
                <path d="M125.821407,65.9906775 C124.352453,65.6288103 103.142428,46.712353 107.619416,28.6508837 C109.933573,19.3122553 117.322634,14.615341 124.395513,16.3584372 C131.640631,18.1444667 134.330023,29.7585655 134.638823,29.834619 C134.940242,29.9094458 143.030562,20.9510846 150.27322,22.7358875 C157.34733,24.4789837 161.688987,32.0671559 159.373601,41.4057844 C154.896612,59.4672536 127.032003,66.288758 125.821407,65.9906775" id="Fill-1" fill="#FE574A"></path>
                <path d="M33.1098371,125.165693 C33.1098371,125.165693 27.2095576,155.491938 35.1429663,162.141001 C43.4646977,169.118382 54.6370147,161.293051 74.2460759,160.000761 C86.2432696,159.210822 104.222365,165.44023 111.291322,157.974074 C118.404801,150.459781 109.258193,121 109.258193,121 L33.1098371,125.165693 Z" id="Fill-3" fill="#713206"></path>
                <g id="Group-7" transform="translate(36.000000, 84.000000)">
                    <mask id="mask-2" fill="white">
                        <use xlink:href="#path-1"></use>
                    </mask>
                    <g id="Clip-6"></g>
                    <path d="M71.7093931,37.1539515 C70.537531,15.7705879 53.6522897,-0.689048485 34.0012552,0.389375758 C14.3440138,1.4678 -0.636951724,19.6780121 0.532427586,41.0613758 C1.70304828,62.4422545 18.8129793,83.0404061 38.4702207,81.959497 C58.1224966,80.8810727 72.8787724,58.5373152 71.7093931,37.1539515" id="Fill-5" fill="#EDAE83" mask="url(#mask-2)"></path>
                </g>
                <path d="M71.7493205,145 C67.2817819,145 63.310774,143.430884 61.2206396,140.791973 C60.8677436,140.347861 60.9469904,139.705002 61.3952302,139.355355 C61.8434699,139.006935 62.4923031,139.085452 62.8451991,139.529565 C64.6579697,141.82251 68.518775,143.137672 72.6854234,142.930338 C76.8446425,142.704601 80.5370483,140.958822 82.0910286,138.483079 C82.3919188,138.002162 83.0271315,137.857396 83.5125182,138.153062 C83.9966666,138.452408 84.1452544,139.081772 83.8443641,139.562689 C81.9151997,142.633445 77.6829251,144.706788 72.7981025,144.970556 C72.4452065,144.991412 72.0960253,145 71.7493205,145" id="Fill-8" fill="#172A38"></path>
                <path d="M58.995496,119.834681 C58.9031399,118.178384 57.4910643,116.914592 55.8371617,117.004516 C54.1820438,117.095655 52.9145784,118.508915 53.004504,120.162781 C53.0968601,121.819078 54.5101509,123.086516 56.1640535,122.995377 C57.8179562,122.903023 59.0854216,121.490978 58.995496,119.834681" id="Fill-10" fill="#172A38"></path>
                <path d="M42.9893588,122.617974 C42.7769619,118.758194 39.4758101,115.79947 35.6154665,116.010636 C31.7551229,116.223002 28.7983661,119.523671 29.010763,123.382251 C29.2219599,127.242031 32.5219117,130.198356 36.3822553,129.98959 C40.2425989,129.777224 43.2005557,126.475354 42.9893588,122.617974" id="Fill-12" fill="#EDAE83"></path>
                <path d="M88.9953661,117.834151 C88.9041718,116.181163 87.4912677,114.913466 85.8376105,115.004624 C84.1827374,115.095781 82.9145283,116.509329 83.0045067,118.164749 C83.0932692,119.818952 84.5098211,121.085433 86.1659101,120.995491 C87.8207832,120.905549 89.0865604,119.48957 88.9953661,117.834151" id="Fill-14" fill="#172A38"></path>
                <path d="M114.989359,118.617175 C114.778162,114.757098 111.477008,111.800545 107.616662,112.010527 C103.757516,112.22291 100.798358,115.525034 101.010755,119.383911 C101.221952,123.242789 104.523106,126.200542 108.382251,125.989359 C112.242597,125.776977 115.200556,122.477253 114.989359,118.617175" id="Fill-16" fill="#EDAE83"></path>
                <path d="M79,88.8211339 C79,88.8211339 90.7316468,110.845067 107.595024,112 C107.595024,112 111.058533,95.0844251 97.72786,85.7536513 C86.8001298,78.1034532 79,88.8211339 79,88.8211339" id="Fill-18" fill="#713206"></path>
                <path d="M85,85.6225317 C85,85.6225317 78.3765005,114.70196 36.3685651,117 C36.3685651,117 28.6343766,94.3206761 49.9381811,83.4400078 C67.9320829,74.249075 84.775892,81.5315282 85,85.6225317" id="Fill-20" fill="#713206"></path>
                <path d="M81.1014933,87.178239 C81.1014933,87.178239 88.64801,111.34783 60,117 C60,117 72.2598362,114.285584 77.3152216,93.5274198 C79.3118447,85.3314054 81.1014933,87.178239 81.1014933,87.178239" id="Fill-22" fill="#713206"></path>
                <path d="M45.3962493,89.0647755 C43.4551548,91.2037202 39.7963212,99.5329366 43.792039,97.2831468 C47.7865227,95.033357 51.7810064,92.7860034 51.8945352,94.8116668 C52.0055959,96.8385484 48.1258749,101.11522 52.2314193,100.892311 C56.3381978,100.671839 60.3339155,98.4220496 62.4983654,100.33565 C64.6652834,102.252904 68.6610011,100.003115 70.3762722,93.8104069 C72.0927772,87.6213533 69.9258593,85.7028806 67.9859988,87.8418254 C66.0436703,89.979552 66.2707277,94.0345332 64.2161045,94.1441602 C62.1614813,94.2562233 54.0602191,96.7277033 56.0013136,94.5887586 C57.9411741,92.451032 61.8245971,88.1767968 57.7165846,88.3972689 C53.6085722,88.618959 47.674228,93.0052574 47.5606992,90.980812 C47.4496385,88.9539304 47.3361098,86.9246127 45.3962493,89.0647755" id="Fill-24" fill="#9A4B1F"></path>
                <path d="M115.992248,129.72678 C115.842241,126.967483 113.484123,124.857502 110.726386,125.007529 C107.968649,125.156356 105.855344,127.517182 106.007752,130.275278 C106.157759,133.032175 108.517077,135.145756 111.273614,134.992128 C114.031351,134.843301 116.144656,132.484877 115.992248,129.72678" id="Fill-26" fill="#58AEEE"></path>
                <path d="M39.9922482,133.725364 C39.8422407,130.967026 37.4841235,128.85538 34.7263864,129.007754 C31.9686493,129.158929 29.8553442,131.516534 30.0077518,134.272472 C30.1577593,137.03081 32.5158765,139.142456 35.2736136,138.992481 C38.0313507,138.840107 40.1446558,136.482502 39.9922482,133.725364" id="Fill-28" fill="#58AEEE"></path>
                <path d="M198.256572,124.174748 C202.227583,103.219894 189.894538,83.2563487 170.709527,79.5844227 C151.522053,75.9124967 132.749663,89.9257148 128.778652,110.880569 C124.80764,131.835423 136.372102,155.852071 155.559577,159.52276 C174.744587,163.194686 194.28556,145.129602 198.256572,124.174748" id="Fill-30" fill="#EDAE83"></path>
                <path d="M162.972379,138 C161.83249,138 160.656154,137.886856 159.467251,137.655426 C154.587219,136.705276 150.61206,133.966684 149.092627,130.510658 C148.855098,129.970654 149.090113,129.336792 149.617956,129.09379 C150.142029,128.852074 150.764129,129.09379 151.002915,129.632508 C152.228264,132.417387 155.704486,134.741975 159.859363,135.550696 C164.007956,136.355559 168.081143,135.508267 170.222676,133.377822 C170.638667,132.965105 171.300984,132.975391 171.70315,133.398394 C172.106572,133.823969 172.097775,134.501545 171.683041,134.914262 C169.674725,136.912278 166.507669,138 162.972379,138" id="Fill-32" fill="#172A38"></path>
                <path d="M151.946506,110.559686 C152.256411,108.9312 151.18815,107.363479 149.56206,107.053581 C147.934755,106.743682 146.364569,107.80949 146.053449,109.437975 C145.743544,111.066461 146.81302,112.636612 148.43911,112.946511 C150.06763,113.256409 151.635385,112.188171 151.946506,110.559686" id="Fill-34" fill="#172A38"></path>
                <path d="M135.875421,109.309743 C136.597678,105.511308 134.105772,101.848446 130.309725,101.124992 C126.511279,100.401538 122.848406,102.892236 122.124949,106.690671 C121.401493,110.486706 123.893398,114.151967 127.690645,114.875422 C131.487892,115.597676 135.151965,113.105778 135.875421,109.309743" id="Fill-36" fill="#EDAE83"></path>
                <path d="M180.946459,115.56007 C181.256379,113.931812 180.189282,112.36431 178.561899,112.05324 C176.934515,111.7446 175.363038,112.809043 175.053119,114.438516 C174.744414,116.066774 175.812726,117.636707 177.44011,117.946562 C179.066278,118.256417 180.637755,117.187113 180.946459,115.56007" id="Fill-38" fill="#172A38"></path>
                <path d="M141,85.4138117 C141,85.4138117 172.703094,101.139495 195.018283,99.9340805 C200.135125,99.6576092 205.588048,99.6834132 206.746344,93.6501967 C207.21884,91.191446 207.861235,85.5194852 200.17233,84.0695472 C185.957775,81.3883907 146.800163,55.2366703 141,85.4138117" id="Fill-40" fill="#172A38"></path>
                <path d="M146,84.1177782 C146,84.1177782 131.902304,79.3208179 129.929537,89.6016331 C127.959299,99.8799368 129.733525,113 129.733525,113 C129.733525,113 137.818075,93.2232126 146,84.1177782" id="Fill-42" fill="#172A38"></path>
                <path d="M206.874719,123.308175 C207.599401,119.50974 205.106206,115.846878 201.308824,115.124623 C197.51264,114.402369 193.848436,116.893067 193.124953,120.689102 C192.401471,124.487537 194.893466,128.151599 198.690849,128.875053 C202.488232,129.598508 206.152436,127.10661 206.874719,123.308175" id="Fill-44" fill="#EDAE83"></path>
                <path d="M202,96.3580192 C202,96.3580192 200.519837,115.192028 196.868179,123 C196.868179,123 197.064436,99.6762194 191.240016,96.4569018 C185.415595,93.2375842 202,96.3580192 202,96.3580192" id="Fill-46" fill="#172A38"></path>
                <path d="M155.507844,75.5920374 C153.077093,77.2697343 151.909734,83.4773395 154.341732,81.8021711 C156.771235,80.1270027 163.675615,77.1698564 160.855744,80.9146479 C158.035874,84.6607037 159.689633,87.1260458 161.731264,87.5192363 C163.772895,87.9136911 170.677274,84.9552805 169.899035,89.0945267 C169.122043,93.2350373 176.900694,96.8824794 183.803827,93.9240688 C190.708206,90.9681868 184.582066,89.7860868 182.539188,89.3916321 C180.497557,88.995913 173.983544,89.8834362 174.371417,87.8150774 C174.761783,85.7454542 175.149656,83.6745668 171.065147,82.8869216 C166.981885,82.0967478 164.551134,83.7731805 164.940254,81.7035574 C165.329373,79.6339342 168.147997,75.8878784 164.064734,75.1002332 C159.980225,74.3113237 159.201986,78.45057 157.161602,78.0573795 C155.118724,77.6616605 155.507844,75.5920374 155.507844,75.5920374" id="Fill-48" fill="#315063"></path>
                <path d="M90.0283226,70.9756534 C88.9653996,71.3285993 68.2012352,67.9331859 63.8058378,54.9467442 C61.5338088,48.2321635 64.2778351,42.4030221 69.3830867,40.7010112 C74.6159386,38.9559581 80.91543,45.1122201 81.1396597,45.0372037 C81.3564563,44.9671065 82.8393455,36.2135561 88.0697197,34.4672732 C93.1774489,32.7664921 98.9083137,35.7696067 101.180343,42.480498 C105.57574,55.4681695 90.9029423,70.6817367 90.0283226,70.9756534" id="Fill-50" fill="#FE574A"></path>
                <g id="Group-54" transform="translate(77.000000, 0.000000)">
                    <mask id="mask-4" fill="white">
                        <use xlink:href="#path-3"></use>
                    </mask>
                    <g id="Clip-53"></g>
                    <path d="M8.62877647,18.6637 C8.08524706,18.5661667 -0.144282353,12.0225667 1.02430588,5.12556667 C1.62712941,1.5599 4.20271765,-0.398366667 6.82895294,0.0677666667 C9.51818824,0.5491 10.8028941,4.83676667 10.9165412,4.85956667 C11.0277176,4.8773 13.7503059,1.30276667 16.4395412,1.78156667 C19.0645412,2.24896667 20.8470706,4.98243333 20.2442471,8.54936667 C19.0744235,15.4451 9.07965882,18.7422333 8.62877647,18.6637" id="Fill-52" fill="#FE574A" mask="url(#mask-4)"></path>
                </g>
                <path d="M220.983523,101 C220.714587,101 220.445651,100.879898 220.252206,100.646084 C219.888907,100.209118 219.921934,99.5357829 220.326517,99.1422586 L226.36106,93.2726133 C226.763285,92.8816443 227.386083,92.9135862 227.748203,93.3531069 C228.111503,93.7900722 228.077296,94.4634077 227.673892,94.856932 L221.640528,100.727855 C221.451801,100.909285 221.217072,101 220.983523,101" id="Fill-55" fill="#FDCF4D"></path>
                <path d="M216.031125,152 C215.730137,152 215.431473,151.852546 215.242049,151.574698 L211.179293,145.604633 C210.870171,145.147647 210.970113,144.51396 211.407068,144.187368 C211.840537,143.865649 212.444837,143.966796 212.757446,144.425 L216.820201,150.395065 C217.130486,150.852051 217.029382,151.485738 216.592427,151.812331 C216.422758,151.939069 216.22636,152 216.031125,152" id="Fill-57" fill="#FDCF4D"></path>
                <g id="Group-61" transform="translate(223.000000, 124.000000)" fill="#FDCF4D">
                    <path d="M6.81441429,3.141375 C6.74498571,3.141375 6.67427143,3.135125 6.60484286,3.121375 L1.40284286,2.118875 C0.820414286,2.008875 0.4437,1.460125 0.559414286,0.895125 C0.675128571,0.330125 1.24727143,-0.044875 1.81684286,0.076375 L7.01884286,1.078875 C7.59998571,1.188875 7.9767,1.737625 7.86227143,2.302625 C7.76198571,2.798875 7.31455714,3.141375 6.81441429,3.141375" id="Fill-59"></path>
                </g>
                <path d="M8.08641614,155 C7.83623363,155 7.58474808,154.913781 7.38017175,154.738731 C6.92410988,154.346828 6.87068549,153.660998 7.26159566,153.203778 L13.0887634,146.379441 C13.4822796,145.920914 14.1663724,145.873886 14.6198282,146.260563 C15.0758901,146.65116 15.1293145,147.338297 14.7384043,147.795517 L8.91123662,154.618548 C8.69623602,154.870672 8.39132608,155 8.08641614,155" id="Fill-62" fill="#FDCF4D"></path>
                <path d="M15.9888713,102 C15.7184346,102 15.4492107,101.883946 15.2503246,101.651837 L10.2708947,95.8491223 C9.8913132,95.4060059 9.91314216,94.7096801 10.3206162,94.2955773 C10.7305157,93.8814745 11.3671939,93.9052128 11.7492008,94.349648 L16.7286307,100.151044 C17.1094249,100.595479 17.0863832,101.290486 16.6789092,101.704589 C16.4836612,101.902409 16.2362663,102 15.9888713,102" id="Fill-64" fill="#FDCF4D"></path>
                <path d="M5.99231299,123 C5.97053021,123 5.94753728,122.998965 5.92696465,122.998965 L0.943548824,122.721717 C0.386877799,122.690681 -0.0330457788,122.281015 0.00204869887,121.806174 C0.0371431765,121.331334 0.528465864,120.975462 1.07303535,121.001325 L6.05645118,121.277539 C6.6131222,121.308574 7.03304578,121.718241 6.9979513,122.193081 C6.96406698,122.650335 6.51994031,123 5.99231299,123" id="Fill-66" fill="#FDCF4D"></path>
            </g>
        </g>
    </g>
</svg>