<?xml version="1.0" encoding="UTF-8"?>
<svg width="174px" height="147px" viewBox="0 0 174 147" version="1.1" xmlns="http://www.w3.org/2000/svg" xmlns:xlink="http://www.w3.org/1999/xlink">
    <!-- Generator: Sketch 47.1 (45422) - http://www.bohemiancoding.com/sketch -->
    <title>Page 1</title>
    <desc>Created with Sketch.</desc>
    <defs>
        <polygon id="path-1" points="69.7302876 79 0.73401946 79 0.73401946 0.222669145 69.7302876 0.222669145"></polygon>
    </defs>
    <g id="Layouts" stroke="none" stroke-width="1" fill="none" fill-rule="evenodd">
        <g id="768-Rules" transform="translate(-297.000000, -1143.000000)">
            <g id="Group-2" transform="translate(11.000000, 81.000000)">
                <g id="Group" transform="translate(109.000000, 12.000000)">
                    <g id="Page-1" transform="translate(177.000000, 1050.000000)">
                        <path d="M73.9309,101.4904 C78.4179,81.2994 66.9959,61.5844 48.4239,57.4564 C29.8479,53.3294 11.1529,66.3514 6.6649,86.5434 C2.1779,106.7334 12.7309,130.3524 31.3069,134.4804 C49.8799,138.6074 69.4439,121.6814 73.9309,101.4904" id="Fill-1" fill="#EDAE83"></path>
                        <path d="M39.6458,114.673 C38.4018,114.673 37.1078,114.532 35.8038,114.242 C31.1718,113.214 27.4558,110.544 26.1048,107.275 C25.8938,106.764 26.1358,106.18 26.6468,105.969 C27.1558,105.757 27.7428,105.999 27.9528,106.511 C29.0418,109.146 32.2938,111.414 36.2378,112.289 C40.1778,113.166 44.0858,112.489 46.1908,110.564 C46.5978,110.193 47.2318,110.219 47.6038,110.627 C47.9758,111.034 47.9478,111.667 47.5408,112.04 C45.6668,113.755 42.8178,114.673 39.6458,114.673" id="Fill-3" fill="#172A38"></path>
                        <path d="M29.5198,87.5861 C29.8748,85.9881 28.8688,84.4081 27.2718,84.0531 C25.6738,83.6971 24.0918,84.7041 23.7378,86.3011 C23.3828,87.8981 24.3888,89.4811 25.9868,89.8361 C27.5828,90.1901 29.1648,89.1841 29.5198,87.5861" id="Fill-5" fill="#172A38"></path>
                        <g id="Group-9" transform="translate(0.000000, 77.800000)" fill="#EDAE83">
                            <path d="M13.8342,8.749 C14.6742,4.976 12.2942,1.235 8.5202,0.397 C4.7462,-0.441 1.0062,1.938 0.1682,5.712 C-0.6708,9.486 1.7092,13.226 5.4822,14.063 C9.2572,14.902 12.9962,12.523 13.8342,8.749" id="Fill-7"></path>
                        </g>
                        <path d="M57.2307,93.7434 C57.5847,92.1454 56.5787,90.5654 54.9827,90.2114 C53.3847,89.8554 51.8027,90.8624 51.4487,92.4594 C51.0937,94.0564 52.0997,95.6394 53.6977,95.9934 C55.2937,96.3474 56.8757,95.3414 57.2307,93.7434" id="Fill-10" fill="#172A38"></path>
                        <path d="M21.4382,63.4704 C21.4382,63.4704 17.2842,61.3064 12.7362,64.5974 C4.8612,70.2934 7.2912,88.3354 7.2912,88.3354 C7.2912,88.3354 13.4132,71.9314 21.4382,63.4704" id="Fill-12" fill="#6B818D"></path>
                        <path d="M82.1682,101.7346 C83.0062,97.9606 80.6272,94.2206 76.8542,93.3826 C73.0782,92.5436 69.3402,94.9226 68.5012,98.6976 C67.6622,102.4706 70.0412,106.2106 73.8162,107.0486 C77.5902,107.8876 81.3292,105.5066 82.1682,101.7346" id="Fill-14" fill="#EDAE83"></path>
                        <path d="M72.0711,78.0339 C72.0711,78.0339 76.1701,76.5319 78.4601,80.5769 C82.7971,88.2359 73.6721,103.0859 73.6721,103.0859 C73.6721,103.0859 75.7591,89.0989 72.0711,78.0339" id="Fill-16" fill="#6B818D"></path>
                        <path d="M21.4382,63.4704 C21.4382,63.4704 28.7962,70.2944 43.3372,73.6414 C51.1862,75.4474 65.3462,80.6374 72.0712,78.0334 C73.8062,70.2244 74.3572,53.9004 50.9302,48.6944 C36.0832,45.3954 25.3232,45.9914 21.4382,63.4704" id="Fill-18" fill="#172A38"></path>
                        <path d="M33.928,52.2297 C31.542,53.7487 30.24,59.6047 32.626,58.0867 C35.013,56.5677 41.738,53.9647 38.917,57.4357 C36.097,60.9077 37.616,63.2927 39.568,63.7267 C41.521,64.1617 48.245,61.5587 47.378,65.4617 C46.51,69.3677 53.886,73.0547 60.611,70.4517 C67.335,67.8487 61.478,66.5467 59.526,66.1127 C57.574,65.6787 51.282,66.3307 51.716,64.3777 C52.15,62.4257 52.583,60.4727 48.679,59.6047 C44.775,58.7377 42.388,60.2557 42.822,58.3037 C43.256,56.3507 46.075,52.8797 42.171,52.0127 C38.267,51.1447 37.399,55.0507 35.447,54.6177 C33.493,54.1817 33.928,52.2297 33.928,52.2297" id="Fill-20" fill="#315063"></path>
                        <g id="Group-24" transform="translate(96.000000, 67.800000)">
                            <mask id="mask-2" fill="white">
                                <use xlink:href="#path-1"></use>
                            </mask>
                            <g id="Clip-23"></g>
                            <path d="M69.47,33.834 C67.182,13.277 49.997,-1.684 31.088,0.42 C12.174,2.523 -1.3,20.896 0.987,41.453 C3.273,62.009 20.9,80.943 39.813,78.84 C58.722,76.736 71.758,54.391 69.47,33.834" id="Fill-22" fill="#EDAE83" mask="url(#mask-2)"></path>
                        </g>
                        <path d="M131.4934,126.1477 C127.5764,126.1477 124.0854,124.8507 122.0874,122.5797 C121.7234,122.1657 121.7634,121.5337 122.1784,121.1687 C122.5904,120.8037 123.2234,120.8437 123.5894,121.2587 C125.4714,123.3997 129.2794,124.4977 133.2974,124.0457 C137.3114,123.5997 140.7894,121.6957 142.1574,119.1937 C142.4214,118.7087 143.0294,118.5297 143.5144,118.7957 C143.9984,119.0607 144.1774,119.6687 143.9114,120.1527 C142.2144,123.2567 138.2324,125.5097 133.5184,126.0347 C132.8354,126.1107 132.1574,126.1477 131.4934,126.1477" id="Fill-25" fill="#172A38"></path>
                        <path d="M118.9475,102.8459 C118.7665,101.2179 117.3025,100.0489 115.6775,100.2299 C114.0525,100.4099 112.8815,101.8739 113.0615,103.4999 C113.2425,105.1259 114.7075,106.2979 116.3335,106.1169 C117.9595,105.9369 119.1295,104.4719 118.9475,102.8459" id="Fill-27" fill="#172A38"></path>
                        <path d="M103.7717,106.9387 C103.3437,103.0967 99.8827,100.3297 96.0407,100.7547 C92.1997,101.1827 89.4307,104.6437 89.8577,108.4877 C90.2857,112.3297 93.7467,115.0977 97.5877,114.6707 C101.4317,114.2427 104.1997,110.7817 103.7717,106.9387" id="Fill-29" fill="#EDAE83"></path>
                        <path d="M147.1604,99.7062 C146.9804,98.0792 145.5164,96.9092 143.8904,97.0912 C142.2654,97.2712 141.0934,98.7342 141.2734,100.3622 C141.4554,101.9872 142.9204,103.1592 144.5474,102.9772 C146.1724,102.7982 147.3424,101.3332 147.1604,99.7062" id="Fill-31" fill="#172A38"></path>
                        <path d="M140.76,59.5588 C139.905,51.8738 132.983,46.3368 125.297,47.1928 C117.614,48.0468 112.077,54.9698 112.931,62.6548 C113.786,70.3388 120.708,75.8758 128.393,75.0208 C136.078,74.1648 141.615,67.2438 140.76,59.5588" id="Fill-33" fill="#172A38"></path>
                        <path d="M136.1233,72.1496 C136.1233,72.1496 148.4943,92.9076 164.6173,93.1266 C164.6173,93.1266 166.9943,76.5206 153.7913,68.1706 C142.9683,61.3256 136.1233,72.1496 136.1233,72.1496" id="Fill-35" fill="#172A38"></path>
                        <path d="M149.5959,66.6262 C149.5959,66.6262 148.6389,67.2962 146.2829,73.0302 C142.8019,81.5072 133.3849,96.6012 96.0399,100.7552 C96.0399,100.7552 87.2759,79.0642 107.4099,67.2942 C124.4159,57.3532 149.1529,62.6492 149.5959,66.6262" id="Fill-37" fill="#172A38"></path>
                        <path d="M104.0999,73.6984 C102.3319,75.9074 99.2409,84.3004 102.9959,81.8714 C106.7489,79.4414 110.5039,77.0114 110.7249,78.9984 C110.9459,80.9874 107.4129,85.4044 111.3889,84.9624 C115.3639,84.5194 119.1179,82.0894 121.3269,83.8564 C123.5369,85.6224 127.2899,83.1924 128.6149,77.0074 C129.9399,70.8244 127.7309,69.0574 125.9639,71.2664 C124.1979,73.4744 124.6389,77.4514 122.6519,77.6714 C120.6639,77.8924 112.9339,80.7644 114.6999,78.5564 C116.4669,76.3474 119.9999,71.9294 116.0259,72.3724 C112.0489,72.8134 106.5279,77.4544 106.3069,75.4664 C106.0859,73.4774 105.8659,71.4894 104.0999,73.6984" id="Fill-39" fill="#315063"></path>
                        <path d="M95.3762,105.8479 C94.3712,105.8479 93.5052,105.0919 93.3922,104.0689 C91.3802,85.9849 106.2392,69.4369 126.5162,67.1809 C136.2902,66.0889 145.8722,68.4509 153.4892,73.8209 C161.1822,79.2439 165.9572,87.0799 166.9372,95.8879 C167.0592,96.9859 166.2692,97.9739 165.1702,98.0959 C164.0932,98.2179 163.0842,97.4279 162.9622,96.3289 C162.1102,88.6759 157.9282,81.8439 151.1852,77.0899 C144.3672,72.2829 135.7642,70.1749 126.9572,71.1559 C108.8732,73.1679 95.5992,87.7349 97.3662,103.6269 C97.4882,104.7249 96.6982,105.7129 95.6002,105.8349 C95.5252,105.8439 95.4502,105.8479 95.3762,105.8479" id="Fill-41" fill="#FE574A"></path>
                        <path d="M173.342,99.1984 C172.914,95.3564 169.453,92.5894 165.612,93.0164 C161.77,93.4434 159.001,96.9044 159.428,100.7474 C159.857,104.5894 163.318,107.3564 167.158,106.9294 C171.002,106.5034 173.77,103.0414 173.342,99.1984" id="Fill-43" fill="#EDAE83"></path>
                        <path d="M163.5334,91.6794 C170.0914,104.3614 167.8194,123.9664 167.8194,123.9664 C167.8194,123.9664 167.7834,125.1484 166.8644,125.2444 C166.0044,125.3344 165.8304,124.1874 165.8304,124.1874 C165.8304,124.1874 164.0034,111.2934 161.8454,105.0784 C158.7084,96.0444 147.3594,85.4214 147.3594,85.4214 L159.1574,85.4214 C159.1574,85.4214 162.7494,90.1634 163.5334,91.6794" id="Fill-45" fill="#172A38"></path>
                        <path d="M95.8054,105.2971 C94.8894,119.5451 104.8404,136.5891 104.8404,136.5891 C104.8404,136.5891 105.3474,137.6571 106.2274,137.3771 C107.0514,137.1141 106.7494,135.9931 106.7494,135.9931 C106.7494,135.9931 103.2474,123.4511 102.7294,116.8931 C101.9764,107.3591 108.1074,93.0731 108.1074,93.0731 L97.3014,97.8091 C97.3014,97.8091 95.9144,103.5941 95.8054,105.2971" id="Fill-47" fill="#172A38"></path>
                        <path d="M156.6643,75.8996 C156.4203,73.7046 154.4413,72.1236 152.2463,72.3666 C150.0513,72.6106 148.4693,74.5886 148.7133,76.7846 C148.9573,78.9806 150.9353,80.5616 153.1313,80.3186 C155.3263,80.0746 156.9083,78.0956 156.6643,75.8996" id="Fill-49" fill="#F3F3F3"></path>
                        <path d="M110.8548,18.7463 L100.2208,29.0623 L103.7858,46.0723 C103.9908,46.6883 103.7778,47.3633 103.2608,47.7523 C102.9948,47.9493 102.6798,48.0493 102.3638,48.0493 C102.0608,48.0493 101.7598,47.9573 101.5008,47.7753 L87.3458,37.8693 L73.1908,47.7753 C72.6608,48.1503 71.9488,48.1363 71.4338,47.7523 C70.9148,47.3633 70.7008,46.6883 70.9068,46.0723 L74.4698,29.0623 L63.9648,18.7463 C63.4588,18.3543 63.2578,17.6793 63.4658,17.0723 C63.6738,16.4663 64.2468,16.0593 64.8868,16.0593 L78.7168,16.0593 L85.9228,1.0253 C86.1268,0.4143 86.7018,0.0003 87.3458,0.0003 C87.9948,0.0003 88.5668,0.4143 88.7698,1.0253 L96.1038,16.0593 L109.9338,16.0593 C110.5728,16.0593 111.1468,16.4663 111.3538,17.0723 C111.5618,17.6793 111.3628,18.3543 110.8548,18.7463" id="Fill-51" fill="#FDCF4D"></path>
                    </g>
                </g>
            </g>
        </g>
    </g>
</svg>