<?xml version="1.0" encoding="UTF-8"?>
<svg width="163px" height="152px" viewBox="0 0 163 152" version="1.1" xmlns="http://www.w3.org/2000/svg" xmlns:xlink="http://www.w3.org/1999/xlink">
    <!-- Generator: Sketch 47.1 (45422) - http://www.bohemiancoding.com/sketch -->
    <title>Page 1</title>
    <desc>Created with Sketch.</desc>
    <defs>
        <polygon id="path-1" points="57.6614808 0 0.945288462 0 0.945288462 51.0940696 57.6614808 51.0940696 57.6614808 0"></polygon>
        <polygon id="path-3" points="0 152 162 152 162 0 0 0"></polygon>
    </defs>
    <g id="Layouts" stroke="none" stroke-width="1" fill="none" fill-rule="evenodd">
        <g id="768-Rules" transform="translate(-303.000000, -749.000000)">
            <g id="Group-2" transform="translate(11.000000, 81.000000)">
                <g id="Group" transform="translate(109.000000, 12.000000)">
                    <g id="Page-1" transform="translate(183.000000, 656.000000)">
                        <path d="M86.1169515,117.254163 C86.1169515,117.254163 84.579824,145.321539 92.6508735,150.32433 C101.123158,155.575811 110.318798,147.130395 128.030801,143.519374 C138.86868,141.309046 156.04947,144.683644 161.548092,137.072398 C167.081751,129.412083 155.01417,104 155.01417,104 L86.1169515,117.254163 Z" id="Fill-1" fill="#713206"></path>
                        <path d="M152.253562,103.98812 C148.534788,84.8544913 131.295435,72.1271865 113.750475,75.558865 C96.2032762,78.9871746 84.9943384,97.2819734 88.7119937,116.413356 C92.4307684,135.546985 110.387682,151.974348 127.93488,148.543793 C145.480959,145.112114 155.971218,123.119503 152.253562,103.98812" id="Fill-4" fill="#EDAE83"></path>
                        <path d="M121.197471,130 C117.992425,130 115.121452,129.053627 113.292603,127.30639 C112.911783,126.944309 112.901521,126.345353 113.268659,125.969737 C113.638077,125.592992 114.242373,125.58284 114.620913,125.944921 C116.584303,127.818492 120.309271,128.564085 124.099229,127.824132 C127.892608,127.09433 131.060028,125.026748 132.168283,122.562117 C132.383777,122.084983 132.950447,121.870667 133.431602,122.080471 C133.915039,122.293658 134.131673,122.854263 133.917319,123.331398 C132.542262,126.389344 128.92105,128.824648 124.465227,129.684166 C123.355832,129.896226 122.257838,130 121.197471,130" id="Fill-6" fill="#172A38"></path>
                        <path d="M108.944205,109.425375 C108.626809,107.797489 107.053103,106.737976 105.426297,107.056554 C103.800698,107.371512 102.738688,108.946301 103.056084,110.570567 C103.37348,112.200867 104.948393,113.26038 106.573992,112.944216 C108.200798,112.626844 109.260395,111.050848 108.944205,109.425375" id="Fill-8" fill="#172A38"></path>
                        <path d="M94.8783151,114.256438 C94.1924417,110.733339 90.7796682,108.433645 87.2562699,109.121673 C83.7328716,109.808594 81.4351956,113.219972 82.121069,116.743072 C82.8080487,120.267277 86.2208222,122.564758 89.7442205,121.878943 C93.2665125,121.192022 95.5664011,117.779538 94.8783151,114.256438" id="Fill-10" fill="#EDAE83"></path>
                        <path d="M135.943874,104.427116 C135.626498,102.797266 134.052893,101.738044 132.424983,102.056534 C130.799488,102.372612 129.738752,103.946967 130.056128,105.573198 C130.372297,107.199429 131.947109,108.258651 133.573812,107.944986 C135.200514,107.62529 136.26125,106.050934 135.943874,104.427116" id="Fill-12" fill="#172A38"></path>
                        <path d="M159.878979,101.25585 C159.190931,97.7318607 155.779451,95.4345204 152.257351,96.1213997 C148.734146,96.808279 146.434384,100.220554 147.121326,103.742331 C147.808268,107.266321 151.220854,109.564767 154.74406,108.878994 C158.266159,108.191008 160.564815,104.77984 159.878979,101.25585" id="Fill-14" fill="#EDAE83"></path>
                        <path d="M123,78.6412649 C123,78.6412649 136.033911,96.9824489 150.984703,95.9586826 C150.984703,95.9586826 151.924873,80.353464 139.063714,73.6023804 C128.519202,68.0693788 123,78.6412649 123,78.6412649" id="Fill-16" fill="#713206"></path>
                        <path d="M127,74.2006221 C127,74.2006221 124.649283,101.592167 86.7177174,109 C86.7177174,109 76.8116857,89.2649031 94.8244902,76.6350261 C110.033955,65.9693217 126.278949,70.4927683 127,74.2006221" id="Fill-18" fill="#713206"></path>
                        <path d="M124.113943,77.1105069 C124.113943,77.1105069 133.871173,98.2448665 109,107 C109,107 119.608047,102.981471 121.528211,83.3866487 C122.28585,75.6451374 124.113943,77.1105069 124.113943,77.1105069" id="Fill-20" fill="#713206"></path>
                        <path d="M92.1747021,82.9288643 C90.6600345,85.13439 88.3657754,93.2351322 91.7603658,90.6689264 C95.1538147,88.1038407 98.5484051,85.538755 98.9159431,87.3847206 C99.2823397,89.2306862 96.2541459,93.6406173 100.015133,92.9214972 C103.77612,92.201257 107.17071,89.6361713 109.41703,91.1214568 C111.66449,92.6078623 115.057939,90.0438967 115.839814,84.1464399 C116.620547,78.2512233 114.373086,76.7636977 112.85956,78.9703434 C111.344892,81.1758691 112.078827,84.86556 110.197763,85.2262402 C108.31784,85.5846801 101.163404,88.8711261 102.675789,86.6644804 C104.189315,84.4600749 107.21865,80.0501437 103.457663,80.7703839 C99.6955346,81.4883839 94.7874181,86.2589952 94.4210215,84.4130296 C94.0546249,82.5693043 93.6882283,80.7233387 92.1747021,82.9288643" id="Fill-22" fill="#9A4B1F"></path>
                        <path d="M160.916144,110.639541 C160.441107,108.199807 158.078791,106.607278 155.639268,107.084501 C153.198672,107.558506 151.607353,109.922098 152.084534,112.359687 C152.558499,114.800492 154.921887,116.391949 157.360338,115.915799 C159.799861,115.441794 161.391181,113.078201 160.916144,110.639541" id="Fill-24" fill="#FDCF4D"></path>
                        <path d="M92.9158539,123.640074 C92.4408694,121.199629 90.0788133,119.607334 87.6395588,120.084487 C85.2003042,120.559494 83.6080875,122.921665 84.0841442,125.359966 C84.5602009,127.79934 86.9222571,129.392706 89.3615116,128.915554 C91.799694,128.441619 93.3919107,126.077303 92.9158539,123.640074" id="Fill-26" fill="#FDCF4D"></path>
                        <path d="M100,53.7694901 C100,55.9948912 102.745912,58.8463268 105.069894,58.8463268 L135.483649,58.8463268 C136.461045,58.8463268 137.459763,58.7890058 138.072459,59.9151936 L140.551298,63.9231634 C142.242385,67.3073465 144.099551,69 146.549214,69 C148.792401,69 149,65.2651476 149,64.0928783 L149,30.0768366 C149,27.8514356 146.252966,25 143.931228,25 L105.069894,25 C102.745912,25 100,27.8514356 100,30.0768366 L100,53.7694901 Z" id="Fill-28" fill="#FFFFFF"></path>
                        <g id="Group-32" transform="translate(38.000000, 0.000000)">
                            <mask id="mask-2" fill="white">
                                <use xlink:href="#path-1"></use>
                            </mask>
                            <g id="Clip-31"></g>
                            <path d="M57.6614808,31.9343304 C57.6614808,34.541113 54.0476346,38.321287 51.3606731,38.321287 L16.7000962,38.321287 C15.5690962,38.321287 14.3031346,39.1352 13.5948654,40.4544174 L10.7238654,45.1479826 C8.76859615,49.1124174 6.61701923,51.0940696 3.78282692,51.0940696 C1.18621154,51.0940696 0.945288462,46.7181565 0.945288462,45.3458087 L0.945288462,5.50702609 C0.945288462,2.90137391 3.69136538,-0.000452173913 6.37832692,-0.000452173913 L51.3606731,-0.000452173913 C54.0476346,-0.000452173913 57.6614808,3.78198261 57.6614808,6.38424348 L57.6614808,31.9343304 Z" id="Fill-30" fill="#FFFFFF" mask="url(#mask-2)"></path>
                        </g>
                        <path d="M85.1047285,18 L52.8941427,18 C51.8488649,18 51,17.1051534 51,15.9994042 C51,14.8948466 51.8488649,14 52.8941427,14 L85.1047285,14 C86.1511351,14 87,14.8948466 87,15.9994042 C87,17.1051534 86.1511351,18 85.1047285,18" id="Fill-33" fill="#2D88F6"></path>
                        <path d="M76.1449791,28 L52.853916,28 C51.8308372,28 51,27.1051534 51,25.9994042 C51,24.8948466 51.8308372,24 52.853916,24 L76.1449791,24 C77.1691628,24 78,24.8948466 78,25.9994042 C78,27.1051534 77.1691628,28 76.1449791,28" id="Fill-35" fill="#2D88F6"></path>
                        <path d="M115,44.8408771 C115,43.5847624 115.82649,42.660388 117.011126,42.660388 C118.195762,42.660388 118.977748,43.5600225 119,44.8408771 C119,46.074501 118.195762,47 116.988874,47 C115.82649,47 115,46.074501 115,44.8408771 M115,37.1816137 C115,35.9018836 115.82649,35 117.011126,35 C118.195762,35 118.977748,35.8771437 119,37.1816137 C119,38.4152376 118.195762,39.339612 116.988874,39.339612 C115.82649,39.339612 115,38.4152376 115,37.1816137" id="Fill-37" fill="#2D88F6"></path>
                        <mask id="mask-4" fill="white">
                            <use xlink:href="#path-3"></use>
                        </mask>
                        <g id="Clip-40"></g>
                        <polygon id="Fill-39" fill="#2D88F6" mask="url(#mask-4)" points="120 42 126 42 126 40 120 40"></polygon>
                        <path d="M128,50 C129.250269,47.8340581 130.295753,44.6554824 130.295753,40.4877189 C130.295753,36.3210718 129.272904,33.1893877 128,31 L130.408924,31 C131.613925,32.8120226 133,35.8968151 133,40.4877189 C132.977366,45.0797391 131.613925,48.1634152 130.408924,50 L128,50 Z" id="Fill-41" fill="#2D88F6" mask="url(#mask-4)"></path>
                        <path d="M70.3851135,102.960452 C73.841694,83.7885583 62.37539,65.668117 44.7743837,62.4812175 C27.168897,59.2965623 10.0999308,72.254002 6.6422303,91.4225292 C3.18676992,110.591056 13.9843835,132.420196 31.5898702,135.607095 C49.1886363,138.792873 66.9285331,122.126735 70.3851135,102.960452" id="Fill-42" fill="#EDAE83" mask="url(#mask-4)"></path>
                        <path d="M51.3595296,119.935295 C49.4789994,114.248673 45.7190592,108.563181 36.3197685,106.667264 C26.9193578,104.771347 20.1790181,106.992472 17.5200672,112.352756 C15.6395371,116.14459 11.9288781,117.635126 9,116.970031 C13.2426731,126.963399 21.039201,134.833881 31.0343476,136.655271 C39.9979466,138.286957 49.8687698,133.941818 57,127.516704 C52.9656524,125.997938 52.5725219,123.602917 51.3595296,119.935295" id="Fill-43" fill="#172A38" mask="url(#mask-4)"></path>
                        <path d="M34.6835185,109.601528 C25.1974956,108.039954 23.3670371,109.601528 21.480395,113.326221 C19.5948766,117.053134 23.3670371,122.641283 30.911358,124.50474 C38.455679,126.367086 46,122.641283 46,118.91659 C46,115.189678 46,111.463875 34.6835185,109.601528" id="Fill-44" fill="#EDAE83" mask="url(#mask-4)"></path>
                        <path d="M36.6538823,121 C35.6620185,121 34.6394433,120.907972 33.606631,120.719316 C29.1500688,119.907172 25.503377,117.474191 24.0883786,114.370558 C23.8665742,113.887413 24.077004,113.31224 24.5547366,113.090224 C25.037019,112.864756 25.6011984,113.07642 25.8218653,113.563016 C26.9615987,116.063867 30.1510322,118.126437 33.9455937,118.818945 C37.7356053,119.516054 41.4403075,118.711963 43.3739869,116.77248 C43.7482107,116.397467 44.3522011,116.400918 44.7241501,116.780532 C45.0949615,117.158996 45.0915492,117.76983 44.7161879,118.145993 C42.8746426,119.989997 39.9354499,121 36.6538823,121" id="Fill-45" fill="#172A38" mask="url(#mask-4)"></path>
                        <path d="M27.9516616,92.5323235 C28.2461482,90.8996876 27.1647548,89.3418658 25.5342165,89.048643 C23.9024712,88.7530068 22.3431406,89.8353973 22.048654,91.4680331 C21.7529605,93.0982556 22.8355608,94.6584908 24.4673061,94.9517137 C26.0978445,95.2461432 27.657175,94.1637527 27.9516616,92.5323235" id="Fill-46" fill="#172A38" mask="url(#mask-4)"></path>
                        <path d="M12.8946479,91.6567269 C13.5351674,88.1232623 11.1888084,84.7435709 7.65654795,84.1052462 C4.12318127,83.4647089 0.74358353,85.8144519 0.105276526,89.3434913 C-0.53524298,92.8780622 1.81332854,96.2577537 5.34558897,96.8949721 C8.87895564,97.5344031 12.2585534,95.187979 12.8946479,91.6567269" id="Fill-47" fill="#EDAE83" mask="url(#mask-4)"></path>
                        <path d="M54.9509819,96.5348257 C55.2479106,94.9022509 54.1652072,93.3432807 52.5333065,93.0476556 C50.9026128,92.7556503 49.3431337,93.8355871 49.0486191,95.464542 C48.7528974,97.0971168 49.8368078,98.6597069 51.4675015,98.9517122 C53.0969882,99.2461307 54.6576743,98.1637807 54.9509819,96.5348257" id="Fill-48" fill="#172A38" mask="url(#mask-4)"></path>
                        <path d="M17,68.2102774 C17,68.2102774 45.9316672,82.1981654 66.1914401,80.9170855 C70.8355398,80.6239196 75.7872328,80.6006875 76.7905462,75.1179311 C77.1976879,72.886551 77.7312225,67.7389993 70.7348729,66.4877892 C57.8014133,64.1767564 22.007619,40.7998139 17,68.2102774" id="Fill-49" fill="#172A38" mask="url(#mask-4)"></path>
                        <path d="M21,66.9460246 C21,66.9460246 8.40351367,62.7588585 6.73516413,72.0026263 C5.06681458,81.2430373 6.75976445,93 6.75976445,93 C6.75976445,93 13.7887492,75.1860811 21,66.9460246" id="Fill-50" fill="#172A38" mask="url(#mask-4)"></path>
                        <path d="M77.8952409,102.655145 C78.5334965,99.1249826 76.1895385,95.7419563 72.6553497,95.1047348 C69.1233733,94.4664071 65.7440472,96.811736 65.1046854,100.345217 C64.4664297,103.876486 66.8126001,107.2573 70.3456827,107.895628 C73.8776591,108.532849 77.2569852,106.186414 77.8952409,102.655145" id="Fill-51" fill="#EDAE83" mask="url(#mask-4)"></path>
                        <path d="M73,78.1296922 C73,78.1296922 71.8091232,94.9863184 68.5313327,102 C68.5313327,102 68.5071466,81.1401614 63.1447457,78.3064517 C57.7823449,75.4738537 73,78.1296922 73,78.1296922" id="Fill-52" fill="#172A38" mask="url(#mask-4)"></path>
                        <path d="M30.2352393,59.6037941 C28.0385354,61.1447691 27.0308215,66.7851472 29.2275253,65.2453103 C31.4242292,63.7054734 37.6743077,60.9615364 35.1420745,64.3837755 C32.6098413,67.8026004 34.1343605,70.0252917 35.9932832,70.3610285 C37.8533318,70.7013177 44.1045362,67.9619331 43.4334775,71.719909 C42.759041,75.480161 49.864832,78.7191675 56.1137846,75.9797829 C62.3672409,73.2381221 56.7882211,72.2183927 54.9270466,71.8815179 C53.066998,71.5389525 47.1513229,72.4004873 47.49023,70.5192231 C47.8257594,68.6402352 48.1612887,66.757833 44.4411915,66.081807 C40.7210943,65.4023668 38.5255164,66.9422037 38.8610458,65.0643538 C39.197701,63.1830897 41.7288083,59.7631268 38.0087111,59.0825485 C34.2897399,58.4019702 33.6175553,62.1633603 31.7597585,61.8219331 C29.8974581,61.4839201 30.2352393,59.6037941 30.2352393,59.6037941" id="Fill-53" fill="#315063" mask="url(#mask-4)"></path>
                        <path d="M57.7283596,104.293147 C55.5213382,105.834309 52.8670987,106.47308 50.4431765,106.026954 C45.369487,105.102032 41.5837857,99.6031934 42.5005828,94.487392 L43.5828507,88.4432885 L62.9742281,91.9728647 L61.8886061,98.0226011 C61.4514504,100.463901 59.935381,102.749732 57.7283596,104.293147 L57.7283596,104.293147 Z M33.4242912,86.5945702 L32.3397873,92.6443066 C31.9037496,95.0856062 30.3865621,97.3691846 28.1806588,98.9125996 C25.9725193,100.456015 23.3160437,101.081267 20.8932396,100.644154 C18.4704355,100.204787 16.2030396,98.6782709 14.6713176,96.4544013 C13.1395955,94.2305317 12.5123721,91.5537768 12.9506459,89.1113506 L14.0340318,83.0649939 L27.2347925,85.4679898 L33.4242912,86.5945702 Z M65.9951865,91.0817397 C66.008603,91.0096385 65.9895963,90.9409171 65.9907143,90.8699426 C65.9940684,90.7539048 66.008603,90.637867 65.984006,90.5240824 C65.9482286,90.3596017 65.8766737,90.2086399 65.7872301,90.0689439 C65.7771677,90.0531718 65.7760496,90.0351465 65.7659872,90.020501 C65.7480985,89.9945896 65.7190293,89.9810707 65.7000225,89.9551593 C65.6061067,89.8368684 65.5043646,89.7230838 65.3746714,89.6397168 C65.2203811,89.537198 65.044848,89.4662235 64.8603705,89.4335526 L13.1496579,80.0209739 C12.780703,79.9578854 12.4039217,80.0378726 12.0964593,80.2507963 C11.9511134,80.3533151 11.8326006,80.4839984 11.7353307,80.6293273 C11.7319765,80.6338336 11.7252683,80.6372133 11.7230322,80.6428462 C11.6358246,80.7757827 11.5843945,80.927871 11.546381,81.0833391 C11.5385547,81.1126302 11.5195479,81.1340352 11.5139577,81.1644529 L11.5139577,81.1655795 L10.1812477,88.6077692 C9.60992657,91.7835992 10.4037387,95.2331882 12.3580819,98.0699175 C14.312425,100.907773 17.2417037,102.863517 20.3934734,103.43582 C21.0643005,103.558617 21.7451901,103.617199 22.4316699,103.617199 C24.9741049,103.617199 27.56797,102.793669 29.7850538,101.242368 C32.6002918,99.2753585 34.5423365,96.3248446 35.1114215,93.1456348 L36.1959254,87.0981516 L40.8123344,87.9385805 L39.7300666,93.9838106 C38.530404,100.675698 43.3022213,107.607547 49.9422923,108.819747 C50.6108833,108.941418 51.2906549,109 51.9748986,109 C54.5195697,109 57.1156708,108.174217 59.3338727,106.621789 C62.1491107,104.652526 64.0900373,101.702013 64.6591224,98.5261826 L65.9940684,91.086246 C65.9940684,91.0851194 65.9951865,91.0828662 65.9951865,91.0817397 L65.9951865,91.0817397 Z" id="Fill-54" fill="#172A38" mask="url(#mask-4)"></path>
                    </g>
                </g>
            </g>
        </g>
    </g>
</svg>