<?xml version="1.0" encoding="UTF-8"?>
<svg width="136px" height="145px" viewBox="0 0 136 145" version="1.1" xmlns="http://www.w3.org/2000/svg" xmlns:xlink="http://www.w3.org/1999/xlink">
    <!-- Generator: Sketch 47.1 (45422) - http://www.bohemiancoding.com/sketch -->
    <title>Page 1</title>
    <desc>Created with Sketch.</desc>
    <defs>
        <polygon id="path-1" points="15.065 26.7454 15.065 0.5394 0.9542 0.5394 0.9542 26.7454 15.065 26.7454"></polygon>
        <polygon id="path-3" points="58.7628 0 0.301565869 0 0.301565869 54.2838 58.7628 54.2838 58.7628 0"></polygon>
    </defs>
    <g id="Layouts" stroke="none" stroke-width="1" fill="none" fill-rule="evenodd">
        <g id="768-Rules" transform="translate(-316.000000, -1524.000000)">
            <g id="Group-2" transform="translate(11.000000, 81.000000)">
                <g id="Group" transform="translate(109.000000, 12.000000)">
                    <g id="Page-1" transform="translate(196.000000, 1431.000000)">
                        <path d="M120.9542,69.463 C120.9542,65.829 118.5402,62.348 114.9062,62.348 L21.0572,62.348 C17.4252,62.348 14.4772,65.295 14.4772,68.929 L14.4772,138.419 C14.4772,142.053 17.4252,145 21.0572,145 L114.9062,145 C118.5402,145 120.9542,142.586 120.9542,138.952 L120.9542,69.463 Z" id="Fill-1" fill="#58AEEE"></path>
                        <path d="M58.461,99.6427 C58.461,92.4057 52.595,86.5387 45.357,86.5387 C38.121,86.5387 32.254,92.4057 32.254,99.6427 C32.254,106.8787 38.121,112.7457 45.357,112.7457 C52.595,112.7457 58.461,106.8787 58.461,99.6427" id="Fill-3" fill="#FDCF4D"></path>
                        <path d="M102.8107,99.6427 C102.8107,92.4057 96.9447,86.5387 89.7067,86.5387 C82.4707,86.5387 76.6047,92.4057 76.6047,99.6427 C76.6047,106.8787 82.4707,112.7457 89.7067,112.7457 C96.9447,112.7457 102.8107,106.8787 102.8107,99.6427" id="Fill-5" fill="#FDCF4D"></path>
                        <path d="M54.4288,99.6427 C54.4288,94.6317 50.3678,90.5707 45.3578,90.5707 C40.3478,90.5707 36.2858,94.6317 36.2858,99.6427 C36.2858,104.6527 40.3478,108.7137 45.3578,108.7137 C50.3678,108.7137 54.4288,104.6527 54.4288,99.6427" id="Fill-7" fill="#2E7BDB"></path>
                        <path d="M98.7794,99.6427 C98.7794,94.6317 94.7174,90.5707 89.7074,90.5707 C84.6974,90.5707 80.6354,94.6317 80.6354,99.6427 C80.6354,104.6527 84.6974,108.7137 89.7074,108.7137 C94.7174,108.7137 98.7794,104.6527 98.7794,99.6427" id="Fill-9" fill="#2E7BDB"></path>
                        <path d="M98.7794,128.5401 C98.7794,125.3851 96.2194,122.8251 93.0634,122.8251 L42.0014,122.8251 C38.8454,122.8251 36.2864,125.3851 36.2864,128.5401 L36.2864,129.2051 C36.2864,132.3611 38.8454,134.9211 42.0014,134.9211 L93.0634,134.9211 C96.2194,134.9211 98.7794,132.3611 98.7794,129.2051 L98.7794,128.5401 Z" id="Fill-11" fill="#F3F3F3"></path>
                        <path d="M14.1114,86.5899 C13.7784,86.5649 13.4434,86.5389 13.1034,86.5389 C5.8664,86.5389 0.0004,92.4049 0.0004,99.6429 C0.0004,106.8789 5.8664,112.7449 13.1034,112.7449 C13.4434,112.7449 13.7784,112.7199 14.1114,112.6939 L14.1114,86.5899 Z" id="Fill-13" fill="#FDCF4D"></path>
                        <g id="Group-17" transform="translate(120.000000, 86.000000)">
                            <mask id="mask-2" fill="white">
                                <use xlink:href="#path-1"></use>
                            </mask>
                            <g id="Clip-16"></g>
                            <path d="M0.9542,26.6944 C1.2862,26.7194 1.6212,26.7454 1.9622,26.7454 C9.1982,26.7454 15.0652,20.8794 15.0652,13.6424 C15.0652,6.4054 9.1982,0.5394 1.9622,0.5394 C1.6212,0.5394 1.2862,0.5644 0.9542,0.5904 L0.9542,26.6944 Z" id="Fill-15" fill="#FDCF4D" mask="url(#mask-2)"></path>
                        </g>
                        <path d="M8.0636,97.6183 C7.5106,97.6183 7.0636,97.1713 7.0636,96.6183 L7.0636,44.2053 C7.0636,43.6523 7.5106,43.2053 8.0636,43.2053 C8.6166,43.2053 9.0636,43.6523 9.0636,44.2053 L9.0636,96.6183 C9.0636,97.1713 8.6166,97.6183 8.0636,97.6183" id="Fill-18" fill="#FDCF4D"></path>
                        <path d="M12.0958,42.1895 C12.0958,39.9625 10.2898,38.1575 8.0638,38.1575 C5.8368,38.1575 4.0318,39.9625 4.0318,42.1895 C4.0318,44.4165 5.8368,46.2205 8.0638,46.2205 C10.2898,46.2205 12.0958,44.4165 12.0958,42.1895" id="Fill-20" fill="#FDCF4D"></path>
                        <path d="M127.0021,97.6183 C126.4491,97.6183 126.0021,97.1713 126.0021,96.6183 L126.0021,44.2053 C126.0021,43.6523 126.4491,43.2053 127.0021,43.2053 C127.5551,43.2053 128.0021,43.6523 128.0021,44.2053 L128.0021,96.6183 C128.0021,97.1713 127.5551,97.6183 127.0021,97.6183" id="Fill-22" fill="#FDCF4D"></path>
                        <path d="M131.0333,42.1895 C131.0333,39.9625 129.2283,38.1575 127.0023,38.1575 C124.7753,38.1575 122.9703,39.9625 122.9703,42.1895 C122.9703,44.4165 124.7753,46.2205 127.0023,46.2205 C129.2283,46.2205 131.0333,44.4165 131.0333,42.1895" id="Fill-24" fill="#FDCF4D"></path>
                        <g id="Group-28" transform="translate(38.000000, 0.000000)">
                            <mask id="mask-4" fill="white">
                                <use xlink:href="#path-3"></use>
                            </mask>
                            <g id="Clip-27"></g>
                            <path d="M58.7628,33.9288 C58.7628,36.6978 55.6098,40.1728 52.7158,40.1728 L16.4418,40.1728 C15.2248,40.1728 14.1048,41.5778 13.3428,42.9798 L10.2508,47.9668 C8.1458,52.1788 5.8278,54.2838 2.7768,54.2838 C-0.0182,54.2838 0.3138,49.6948 0.3138,48.2368 L0.3138,5.9038 C0.3138,3.1348 2.6778,-0.0002 5.5728,-0.0002 L51.9798,-0.0002 C54.8728,-0.0002 58.7628,4.0178 58.7628,6.7838 L58.7628,33.9288 Z" id="Fill-26" fill="#FFFFFF" mask="url(#mask-4)"></path>
                        </g>
                        <path d="M56.4454,20.0147 C56.4454,17.7877 54.6394,15.9827 52.4134,15.9827 C50.1864,15.9827 48.3824,17.7877 48.3824,20.0147 C48.3824,22.2417 50.1864,24.0457 52.4134,24.0457 C54.6394,24.0457 56.4454,22.2417 56.4454,20.0147" id="Fill-29" fill="#2E7BDB"></path>
                        <path d="M72.5724,20.0147 C72.5724,17.7877 70.7644,15.9827 68.5404,15.9827 C66.3134,15.9827 64.5094,17.7877 64.5094,20.0147 C64.5094,22.2417 66.3134,24.0457 68.5404,24.0457 C70.7644,24.0457 72.5724,22.2417 72.5724,20.0147" id="Fill-31" fill="#2E7BDB"></path>
                        <path d="M88.6993,20.0147 C88.6993,17.7877 86.8943,15.9827 84.6683,15.9827 C82.4433,15.9827 80.6363,17.7877 80.6363,20.0147 C80.6363,22.2417 82.4433,24.0457 84.6683,24.0457 C86.8943,24.0457 88.6993,22.2417 88.6993,20.0147" id="Fill-33" fill="#2E7BDB"></path>
                        <path d="M46.3653,97.6261 C46.3653,95.9571 45.0113,94.6031 43.3423,94.6031 C41.6733,94.6031 40.3183,95.9571 40.3183,97.6261 C40.3183,99.2971 41.6733,100.6501 43.3423,100.6501 C45.0113,100.6501 46.3653,99.2971 46.3653,97.6261" id="Fill-35" fill="#58AEEE"></path>
                        <path d="M90.7159,97.6261 C90.7159,95.9571 89.3619,94.6031 87.6919,94.6031 C86.0229,94.6031 84.6679,95.9571 84.6679,97.6261 C84.6679,99.2971 86.0229,100.6501 87.6919,100.6501 C89.3619,100.6501 90.7159,99.2971 90.7159,97.6261" id="Fill-37" fill="#58AEEE"></path>
                    </g>
                </g>
            </g>
        </g>
    </g>
</svg>