<?xml version="1.0" encoding="UTF-8"?>
<svg width="168px" height="145px" viewBox="0 0 168 145" version="1.1" xmlns="http://www.w3.org/2000/svg" xmlns:xlink="http://www.w3.org/1999/xlink">
    <!-- Generator: Sketch 47.1 (45422) - http://www.bohemiancoding.com/sketch -->
    <title>Page 1</title>
    <desc>Created with Sketch.</desc>
    <defs>
        <polygon id="path-1" points="0.3336 90 121.3566 90 121.3566 0.6286 0.3336 0.6286"></polygon>
        <polygon id="path-3" points="0 145 167.252 145 167.252 0 0 0"></polygon>
    </defs>
    <g id="Layouts" stroke="none" stroke-width="1" fill="none" fill-rule="evenodd">
        <g id="768-Rules" transform="translate(-291.000000, -2272.000000)">
            <g id="Group-2" transform="translate(11.000000, 81.000000)">
                <g id="Group" transform="translate(109.000000, 12.000000)">
                    <g id="Page-1" transform="translate(171.000000, 2179.000000)">
                        <g id="Group-3" transform="translate(31.000000, 55.000000)">
                            <mask id="mask-2" fill="white">
                                <use xlink:href="#path-1"></use>
                            </mask>
                            <g id="Clip-2"></g>
                            <path d="M121.3566,8.0766 C121.3566,3.5516 118.4346,0.6286 113.9086,0.6286 L8.8846,0.6286 C4.3586,0.6286 0.3336,3.5516 0.3336,8.0766 L0.3336,82.5526 C0.3336,87.0776 4.0026,90.0006 8.5276,90.0006 L113.5526,90.0006 C118.0786,90.0006 121.3566,87.0776 121.3566,82.5526 L121.3566,8.0766 Z" id="Fill-1" fill="#FDCF4D" mask="url(#mask-2)"></path>
                        </g>
                        <path d="M45.7872,71.2836 C45.7872,68.8886 43.8442,66.9476 41.4512,66.9476 C39.0572,66.9476 37.1152,68.8886 37.1152,71.2836 C37.1152,73.6776 39.0572,75.6196 41.4512,75.6196 C43.8442,75.6196 45.7872,73.6776 45.7872,71.2836" id="Fill-4" fill="#FEE6AB"></path>
                        <path d="M66.0236,100.1909 C66.0236,97.7979 64.0816,95.8559 61.6876,95.8559 C59.2926,95.8559 57.3506,97.7979 57.3506,100.1909 C57.3506,102.5859 59.2926,104.5289 61.6876,104.5289 C64.0816,104.5289 66.0236,102.5859 66.0236,100.1909" id="Fill-6" fill="#FEE6AB"></path>
                        <path d="M94.9323,71.2836 C94.9323,68.8886 92.9893,66.9476 90.5963,66.9476 C88.2013,66.9476 86.2593,68.8886 86.2593,71.2836 C86.2593,73.6776 88.2013,75.6196 90.5963,75.6196 C92.9893,75.6196 94.9323,73.6776 94.9323,71.2836" id="Fill-8" fill="#74DCF8"></path>
                        <path d="M126.7311,100.1909 C126.7311,97.7979 124.7881,95.8559 122.3951,95.8559 C120.0011,95.8559 118.0591,97.7979 118.0591,100.1909 C118.0591,102.5859 120.0011,104.5289 122.3951,104.5289 C124.7881,104.5289 126.7311,102.5859 126.7311,100.1909" id="Fill-10" fill="#FEE6AB"></path>
                        <path d="M146.9674,71.2836 C146.9674,68.8886 145.0244,66.9476 142.6314,66.9476 C140.2364,66.9476 138.2944,68.8886 138.2944,71.2836 C138.2944,73.6776 140.2364,75.6196 142.6314,75.6196 C145.0244,75.6196 146.9674,73.6776 146.9674,71.2836" id="Fill-12" fill="#FEE6AB"></path>
                        <path d="M45.7872,129.1001 C45.7872,126.7061 43.8442,124.7641 41.4512,124.7641 C39.0572,124.7641 37.1152,126.7061 37.1152,129.1001 C37.1152,131.4941 39.0572,133.4381 41.4512,133.4381 C43.8442,133.4381 45.7872,131.4941 45.7872,129.1001" id="Fill-14" fill="#FEE6AB"></path>
                        <path d="M94.9323,129.1001 C94.9323,126.7061 92.9893,124.7641 90.5963,124.7641 C88.2013,124.7641 86.2593,126.7061 86.2593,129.1001 C86.2593,131.4941 88.2013,133.4381 90.5963,133.4381 C92.9893,133.4381 94.9323,131.4941 94.9323,129.1001" id="Fill-16" fill="#74DCF8"></path>
                        <path d="M146.9674,129.1001 C146.9674,126.7061 145.0244,124.7641 142.6314,124.7641 C140.2364,124.7641 138.2944,126.7061 138.2944,129.1001 C138.2944,131.4941 140.2364,133.4381 142.6314,133.4381 C145.0244,133.4381 146.9674,131.4941 146.9674,129.1001" id="Fill-18" fill="#FEE6AB"></path>
                        <mask id="mask-4" fill="white">
                            <use xlink:href="#path-3"></use>
                        </mask>
                        <g id="Clip-21"></g>
                        <polygon id="Fill-20" fill="#FE574A" mask="url(#mask-4)" points="77.88 145 105.809 145 105.809 55.628 77.88 55.628"></polygon>
                        <path d="M95.0231,56.1127 C95.0231,57.4947 94.0321,58.6147 92.8091,58.6147 C91.5871,58.6147 90.5961,57.4947 90.5961,56.1127 C90.5961,54.7307 91.5871,53.6107 92.8091,53.6107 C94.0321,53.6107 95.0231,54.7307 95.0231,56.1127" id="Fill-22" fill="#FE574A" mask="url(#mask-4)"></path>
                        <path d="M93.921,52.1918 C95.939,53.5218 106.572,53.5218 115.167,53.5218 C127.451,53.5218 136.432,47.1418 136.432,43.8218 C136.432,41.0458 128.148,37.0108 115.167,37.0108 C103.763,37.0108 94.383,48.1208 93.921,52.1918 M115.167,57.2468 C97.839,57.2468 90.179,57.0528 90.179,52.4918 C90.179,46.1678 101.745,33.2868 115.167,33.2868 C127.28,33.2868 140.156,36.9798 140.156,43.8218 C140.156,49.9018 129.01,57.2468 115.167,57.2468" id="Fill-23" fill="#FE574A" mask="url(#mask-4)"></path>
                        <path d="M68.9142,37.0112 C55.9342,37.0112 47.6502,41.0452 47.6502,43.8222 C47.6502,47.1422 56.6302,53.5222 68.9142,53.5222 C77.5092,53.5222 88.1432,53.5222 90.1612,52.1922 C89.6992,48.1202 80.3182,37.0112 68.9142,37.0112 M68.9142,57.2462 C55.0722,57.2462 43.9262,49.9022 43.9262,43.8222 C43.9262,36.9802 56.8012,33.2862 68.9142,33.2862 C82.3372,33.2862 93.9032,46.1672 93.9032,52.4912 C93.9032,57.0532 86.2422,57.2462 68.9142,57.2462" id="Fill-24" fill="#FE574A" mask="url(#mask-4)"></path>
                        <path d="M67.4196,18.2319 C67.0366,18.2319 66.6506,18.1139 66.3176,17.8699 L59.6136,12.9389 C58.7866,12.3299 58.6086,11.1649 59.2176,10.3359 C59.8286,9.5059 60.9926,9.3319 61.8216,9.9389 L68.5256,14.8699 C69.3526,15.4789 69.5306,16.6439 68.9216,17.4729 C68.5566,17.9699 67.9926,18.2319 67.4196,18.2319" id="Fill-25" fill="#FDCF4D" mask="url(#mask-4)"></path>
                        <path d="M115.8327,18.392 C115.2567,18.392 114.6887,18.126 114.3237,17.624 C113.7197,16.791 113.9057,15.628 114.7367,15.023 L121.4717,10.131 C122.3057,9.526 123.4677,9.713 124.0737,10.544 C124.6767,11.376 124.4917,12.54 123.6607,13.146 L116.9257,18.038 C116.5947,18.277 116.2107,18.392 115.8327,18.392" id="Fill-26" fill="#FDCF4D" mask="url(#mask-4)"></path>
                        <path d="M92.7755,9.309 L92.7705,9.309 C91.7405,9.306 90.9095,8.471 90.9135,7.442 L90.9295,1.857 C90.9335,0.83 91.7665,0 92.7915,0 L92.7975,0 C93.8265,0.003 94.6575,0.838 94.6535,1.868 L94.6375,7.453 C94.6335,8.479 93.8005,9.309 92.7755,9.309" id="Fill-27" fill="#FDCF4D" mask="url(#mask-4)"></path>
                        <polygon id="Fill-28" fill="#FE574A" mask="url(#mask-4)" points="116.98 74.247 124.428 74.247 124.428 66.8 116.98 66.8"></polygon>
                        <polygon id="Fill-29" fill="#FE574A" mask="url(#mask-4)" points="5.2667 80.1537 -0.0003 85.4197 5.2667 90.6847 10.5327 85.4197"></polygon>
                        <polygon id="Fill-30" fill="#FE574A" mask="url(#mask-4)" points="63.3053 71.1635 58.0383 76.4305 63.3053 81.6955 68.5713 76.4305"></polygon>
                        <polygon id="Fill-31" fill="#FE574A" mask="url(#mask-4)" points="20.161 51.904 27.609 51.904 27.609 44.457 20.161 44.457"></polygon>
                        <polygon id="Fill-32" fill="#FE574A" mask="url(#mask-4)" points="66.3893 122.6577 61.1233 117.3917 55.8583 122.6577 61.1233 127.9237"></polygon>
                        <polygon id="Fill-33" fill="#FE574A" mask="url(#mask-4)" points="27.61 100.315 35.057 100.315 35.057 92.867 27.61 92.867"></polygon>
                        <polygon id="Fill-34" fill="#FE574A" mask="url(#mask-4)" points="167.2516 44.7768 161.9856 39.5108 156.7206 44.7768 161.9856 50.0438"></polygon>
                        <polygon id="Fill-35" fill="#FE574A" mask="url(#mask-4)" points="153.8986 5.3579 148.6326 0.0919 143.3676 5.3579 148.6326 10.6239"></polygon>
                    </g>
                </g>
            </g>
        </g>
    </g>
</svg>