<?xml version="1.0" encoding="UTF-8"?>
<svg width="372px" height="238px" viewBox="0 0 372 238" version="1.1" xmlns="http://www.w3.org/2000/svg" xmlns:xlink="http://www.w3.org/1999/xlink">
    <!-- Generator: Sketch 52.3 (67297) - http://www.bohemiancoding.com/sketch -->
    <title>couple</title>
    <desc>Created with Sketch.</desc>
    <defs>
        <path d="M3.49967949,7.07576265 C3.49967949,7.07576265 -6.25170513,56.2157758 6.86062821,66.9862628 C20.6198462,78.2932246 39.0908077,65.6103211 71.5081026,63.5178915 C78.2282179,63.086573 86.0870641,63.9581216 93.9922436,64.8296702 C109.415897,66.5317743 125.024885,68.2338784 132.751859,60.2348802 C144.513397,48.0617168 129.392692,0.326162359 129.392692,0.326162359 L3.49967949,7.07576265 Z" id="path-1"></path>
        <path d="M54.1956364,0.411821053 C22.4301364,2.18623263 -1.77822727,32.1274137 0.109727273,67.2951411 C2.00477273,102.455706 29.6522273,136.328883 61.4177273,134.550891 C93.1708182,132.778269 117.017545,96.0348789 115.129591,60.8671516 C113.298364,26.7988074 87.6204091,0.329456842 57.1454545,0.329456842 C56.1669091,0.329456842 55.1830455,0.354524211 54.1956364,0.411821053 Z" id="path-3"></path>
        <path d="M35.9748696,1.02342857 C33.325913,4.66285714 27.0297391,7.22742857 19.9367391,7.55828571 C12.8401739,7.89257143 6.25165217,5.93142857 3.15704348,2.56114286 C2.54917391,1.90285714 1.44573913,1.79657143 0.686347826,2.30742857 C-0.0783913043,2.82 -0.210304348,3.76457143 0.386869565,4.416 C3.95030435,8.292 10.7224348,10.5994286 18.3395217,10.5994286 C18.9366957,10.5994286 19.5303043,10.5874286 20.1274783,10.5565714 C28.4593913,10.1674286 35.6789565,7.12457143 38.966087,2.60742857 C39.4776957,1.90285714 39.2227826,0.977142857 38.3974348,0.536571429 C38.1122174,0.387428571 37.7931304,0.313714286 37.4758261,0.313714286 C36.8893478,0.313714286 36.3117826,0.562285714 35.9748696,1.02342857 Z" id="path-5"></path>
        <path d="M35.9748696,1.02342857 C33.3241304,4.66285714 27.0279565,7.22742857 19.9367391,7.55828571 C12.8401739,7.89257143 6.25343478,5.93142857 3.15704348,2.56114286 C2.54917391,1.90285714 1.44573913,1.79657143 0.686347826,2.30742857 C-0.0783913043,2.82 -0.210304348,3.76285714 0.386869565,4.416 C3.95030435,8.29371429 10.7206522,10.5994286 18.3395217,10.5994286 C18.9366957,10.5994286 19.5303043,10.5874286 20.1292609,10.5565714 C28.4576087,10.1674286 35.6789565,7.12457143 38.9643043,2.60742857 C39.4776957,1.90285714 39.2227826,0.977142857 38.3974348,0.536571429 C38.1122174,0.387428571 37.7931304,0.313714286 37.4776087,0.313714286 C36.8893478,0.313714286 36.3117826,0.562285714 35.9748696,1.02342857 Z" id="path-7"></path>
        <path d="M5.83885714,0.320571429 C3,0.478285714 0.824571429,2.90057143 0.982285714,5.736 C1.13828571,8.57314286 3.56228571,10.7451429 6.39942857,10.5942857 C9.23485714,10.4331429 11.4085714,8.00914286 11.2508571,5.17028571 C11.1017143,2.42914286 8.83371429,0.313714286 6.12514286,0.313714286 C6.03085714,0.313714286 5.93485714,0.317142857 5.83885714,0.320571429 Z" id="path-9"></path>
        <path d="M5.83885714,0.320571429 C3,0.48 0.824571429,2.90057143 0.984,5.736 C1.13828571,8.57314286 3.56228571,10.7451429 6.39942857,10.5925714 C9.23485714,10.4331429 11.4068571,8.01085714 11.2508571,5.17028571 C11.1017143,2.42914286 8.83371429,0.313714286 6.12342857,0.313714286 C6.02914286,0.313714286 5.93485714,0.315428571 5.83885714,0.320571429 Z" id="path-11"></path>
        <path d="M11.933,0.350277778 C4.9814,0.736666667 -0.343,6.695 0.0422,13.6590278 C0.4238,20.6284722 6.362,25.9675 13.31,25.5901389 C20.2598,25.2073611 25.5842,19.2472222 25.2026,12.2813889 C24.8336,5.54847222 19.2734,0.332222222 12.635,0.332222222 C12.401,0.332222222 12.167,0.339444444 11.933,0.350277778 Z" id="path-13"></path>
        <path d="M5.83714286,0.320571429 C3.00171429,0.478285714 0.824571429,2.90228571 0.980571429,5.73942857 C1.13314286,8.57657143 3.55885714,10.7468571 6.40114286,10.5908571 C9.23485714,10.4348571 11.4068571,8.01257143 11.2508571,5.17371429 C11.1017143,2.436 8.83371429,0.313714286 6.12171429,0.313714286 C6.02742857,0.313714286 5.93314286,0.317142857 5.83714286,0.320571429 Z" id="path-15"></path>
        <path d="M5.83714286,0.322285714 C3.00171429,0.478285714 0.822857143,2.90228571 0.980571429,5.73942857 C1.13314286,8.57657143 3.56057143,10.7468571 6.40114286,10.5908571 C9.23485714,10.4348571 11.4068571,8.01257143 11.2508571,5.17371429 C11.1,2.436 8.83371429,0.313714286 6.12171429,0.313714286 C6.02742857,0.313714286 5.93314286,0.315428571 5.83714286,0.322285714 Z" id="path-17"></path>
        <path d="M11.9294,0.352083333 C4.9868,0.733055556 -0.3394,6.69680556 0.0422,13.6608333 C0.4202,20.6338889 6.3638,25.9711111 13.31,25.5919444 C20.2598,25.2091667 25.5842,19.2490278 25.2026,12.2777778 C24.8372,5.54305556 19.2734,0.332222222 12.6278,0.332222222 C12.3956,0.332222222 12.1652,0.339444444 11.9294,0.352083333 Z" id="path-19"></path>
        <path d="M0.0285769231,9.64821429 C0.0285769231,9.64821429 16.0790769,47.8964286 43.4131923,49.7446429 C43.4131923,49.7446429 51.9816538,19.675 30.3797308,4.73571429 C25.7213077,1.51607143 21.4135769,0.328571429 17.5921154,0.328571429 C6.89057692,0.326785714 0.0285769231,9.64821429 0.0285769231,9.64821429 Z" id="path-21"></path>
        <path d="M26.4693061,7.81271186 C-9.83987755,26.1592373 2.84969388,62.7330508 2.84969388,62.7330508 C74.4542449,58.8569492 86.2347551,11.4912712 86.2347551,11.4912712 C85.9861837,7.03322034 73.9020612,0.327457627 57.1039592,0.327457627 C47.9139184,0.327457627 37.3141224,2.33313559 26.4693061,7.81271186 Z" id="path-23"></path>
        <path d="M29.5311818,11.2701394 C21.1970909,46.0665825 0.982818182,50.6177432 0.982818182,50.6177432 C48.2168182,41.143642 35.7718182,0.628613353 35.7718182,0.628613353 C35.7718182,0.628613353 35.4868182,0.33047102 34.9962727,0.33047102 C33.9080909,0.33047102 31.8025455,1.79963023 29.5311818,11.2701394 Z" id="path-25"></path>
        <path d="M42.3123704,1.84888889 C39.1527778,5.71097222 39.5193704,13.0306944 36.1819259,13.2293056 C32.8354074,13.4315278 19.658037,17.8948611 22.8121852,14.0327778 C25.9681481,10.1725 32.2873333,2.45736111 25.6033704,2.85458333 C18.923037,3.25361111 9.26459259,11.1745833 9.0812963,7.51833333 C8.89981481,3.85847222 8.7147037,0.195 5.55692593,4.05708333 C2.39733333,7.92277778 -3.55525926,22.96125 2.94540741,18.8969444 C9.44607407,14.83625 15.9467407,10.7791667 16.130037,14.4354167 C16.3115185,18.0934722 9.99777778,25.8158333 16.6762963,25.4168056 C23.3620741,25.0141667 29.8609259,20.9534722 33.3852963,24.4111111 C36.9132963,27.8705556 43.4121481,23.8098611 46.2015185,12.62625 C48.2631481,4.37847222 46.8802593,0.332222222 44.746037,0.332222222 C43.9892593,0.332222222 43.1381111,0.837777778 42.3123704,1.84888889 Z" id="path-27"></path>
        <path d="M8.62545455,0.349315508 C3.61272727,0.625475936 -0.230909091,4.94162567 0.0490909091,9.98383957 C0.32,15.0260535 4.60727273,18.8904706 9.62181818,18.6106524 C14.6381818,18.334492 18.4763636,14.0256578 18.2,8.98161497 C17.9363636,4.10217112 13.9236364,0.336513369 9.12181818,0.336513369 C8.96,0.336513369 8.79090909,0.340171123 8.62545455,0.349315508 Z" id="path-29"></path>
        <path d="M8.62545455,0.349315508 C3.61272727,0.627304813 -0.230909091,4.93613904 0.0490909091,9.97652406 C0.318181818,15.0223957 4.60727273,18.8831551 9.62,18.6088235 C14.6363636,18.3290053 18.4781818,14.0183422 18.2018182,8.97612834 C17.9381818,4.10582888 13.9272727,0.336513369 9.13454545,0.336513369 C8.96363636,0.336513369 8.79636364,0.340171123 8.62545455,0.349315508 Z" id="path-31"></path>
        <path d="M1.145,53.7229516 C-4.97977273,88.5110874 14.1621364,128.122901 45.371,133.90272 C76.5692273,139.684329 108.017409,109.444131 114.143955,74.6595758 C120.274045,39.87144 99.9479545,6.98663368 68.7426364,1.19965263 C65.5676818,0.61236 62.3980455,0.327666316 59.2674091,0.327666316 C31.6252727,0.327666316 6.65286364,22.4764768 1.145,53.7229516 Z" id="path-33"></path>
        <path d="M15.7877303,14.0612449 C12.3533314,20.7762245 5.57468006,23.4164082 0.225997131,22.2410204 C6.93748063,40.1186327 21.0992941,55.9650612 39.3583472,59.1911633 C55.7384677,62.0799184 75.5883386,54.6955714 87.5336126,40.7773469 C80.1698938,38.087449 79.6802755,29.7638571 78.7045739,25.4458163 C76.360769,15.0608571 68.4738479,4.56581633 51.3000861,1.21010204 C48.2386456,0.609979592 45.2938651,0.33122449 42.4957934,0.33122449 C29.5960287,0.33122449 19.7789154,6.25610204 15.7877303,14.0612449 Z" id="path-35"></path>
        <path d="M0.938222222,7.97847495 C-2.62062963,14.5700044 4.5007037,24.4537603 18.7397407,27.7530632 C32.9805926,31.0470588 47.216,24.4537603 47.216,17.8657691 C47.216,11.2742397 47.216,4.68271024 25.8610741,1.39048366 C21.197,0.670474946 17.5147407,0.325507625 14.5547778,0.325507625 C6.14674074,0.325507625 3.57151852,3.10470588 0.938222222,7.97847495 Z" id="path-37"></path>
        <path d="M1.05178261,0.54315 C0.155130435,1.0251 -0.23526087,2.2586625 0.176521739,3.300975 C2.82191304,9.9775125 9.62969565,15.2101125 17.9491304,16.9581375 C19.877913,17.3635875 21.7924348,17.5624875 23.6427826,17.5624875 C29.7749565,17.5624875 35.2618261,15.387975 38.7004783,11.42145 C39.4010435,10.61055 39.4063913,9.2966625 38.7147391,8.480025 C38.0248696,7.6672125 36.8911304,7.661475 36.1941304,8.4704625 C32.5825652,12.6358875 25.6660435,14.3571375 18.5855217,12.8692125 C11.4996522,11.3812875 5.54752174,6.9442875 3.41552174,1.5586875 C3.11604348,0.7956 2.46717391,0.3499875 1.79513043,0.3499875 C1.54556522,0.3499875 1.29065217,0.4111875 1.05178261,0.54315 Z" id="path-39"></path>
        <path d="M1.05178261,0.5412375 C0.153347826,1.0251 -0.237043478,2.2586625 0.178304348,3.300975 C2.82191304,9.9775125 9.62969565,15.2101125 17.9491304,16.9581375 C19.877913,17.3655 21.7924348,17.5624875 23.6427826,17.5624875 C29.7731739,17.5624875 35.2618261,15.3898875 38.7004783,11.42145 C39.4010435,10.61055 39.4081739,9.2966625 38.7147391,8.480025 C38.0248696,7.6672125 36.8911304,7.661475 36.1941304,8.4704625 C32.5825652,12.6358875 25.6660435,14.35905 18.5855217,12.8692125 C11.4996522,11.3832 5.54752174,6.942375 3.41730435,1.5586875 C3.11604348,0.7956 2.46717391,0.3499875 1.79691304,0.3499875 C1.54556522,0.3499875 1.29243478,0.4131 1.05178261,0.5412375 Z" id="path-41"></path>
        <path d="M1.056,4.54628571 C0.550285714,7.33885714 2.40685714,10.0165714 5.20628571,10.5188571 C7.99714286,11.0228571 10.6697143,9.16457143 11.1754286,6.36857143 C11.6811429,3.57257143 9.828,0.898285714 7.032,0.397714286 C6.72171429,0.341142857 6.41142857,0.313714286 6.10628571,0.313714286 C3.66685714,0.313714286 1.50514286,2.05542857 1.056,4.54628571 Z" id="path-43"></path>
        <path d="M1.056,4.54628571 C0.552,7.33885714 2.40685714,10.0165714 5.20457143,10.5188571 C7.99714286,11.0228571 10.6714286,9.16457143 11.1754286,6.37028571 C11.6828571,3.57085714 9.828,0.898285714 7.032,0.397714286 C6.72,0.341142857 6.41314286,0.312 6.10628571,0.312 C3.66514286,0.312 1.50685714,2.05542857 1.056,4.54628571 Z" id="path-45"></path>
        <path d="M0.224,10.7231944 C-1.0126,17.5915278 3.5378,24.16375 10.385,25.4041667 C17.2322,26.65 23.7824,22.0819444 25.019,15.2172222 C26.2574,8.34888889 21.7106,1.77666667 14.8616,0.534444444 C14.1056,0.397222222 13.3496,0.330416667 12.6062,0.330416667 C6.6302,0.330416667 1.3238,4.62041667 0.224,10.7231944 Z" id="path-47"></path>
        <path d="M1.05771429,4.54114286 C0.548571429,7.33885714 2.40857143,10.0165714 5.20457143,10.5188571 C7.99542857,11.0194286 10.6714286,9.16457143 11.1754286,6.37542857 C11.6845714,3.576 9.828,0.9 7.03028571,0.394285714 C6.72342857,0.339428571 6.41828571,0.313714286 6.11657143,0.313714286 C3.67542857,0.313714286 1.50857143,2.052 1.05771429,4.54114286 Z" id="path-49"></path>
        <path d="M1.05942857,4.53942857 C0.548571429,7.34057143 2.41028571,10.0182857 5.20457143,10.5188571 C7.99542857,11.0194286 10.6731429,9.16457143 11.1754286,6.37542857 C11.6845714,3.57771429 9.82628571,0.901714286 7.03028571,0.394285714 C6.72342857,0.341142857 6.41828571,0.313714286 6.11485714,0.313714286 C3.67542857,0.313714286 1.50857143,2.05371429 1.05942857,4.53942857 Z" id="path-51"></path>
        <path d="M27.1928197,0.279611111 C14.0181148,0.388733333 3.54339344,6.50673333 0.280540984,24.8661 C0.280540984,24.8661 47.7938197,48.4812222 84.0068361,48.6726333 L84.8591803,48.6726333 C86.3780328,48.6636889 87.8736557,48.6136 89.3442623,48.5187889 C97.7551311,47.9678111 106.719934,47.9284556 108.538984,37.7246333 C108.715885,36.7264333 108.905295,35.4151778 108.916016,33.9661778 L108.916016,33.7032111 C108.882066,29.1594333 107.012984,23.3974222 97.571082,21.6604111 C82.7363607,18.9377222 51.2889672,0.476388889 27.9272295,0.279611111 L27.1928197,0.279611111 Z" id="path-53"></path>
        <path d="M2.28025,11.5072164 C-0.63875,28.7222421 2.32225,50.6177432 2.32225,50.6177432 C2.32225,50.6177432 14.62475,17.4395304 27.24575,2.09418048 C27.24575,2.09418048 22.2635,0.33047102 16.723,0.33047102 C10.6085,0.33047102 3.81325,2.47494057 2.28025,11.5072164 Z" id="path-55"></path>
        <path d="M0.2258,10.7268056 C-1.0108,17.5879167 3.536,24.1655556 10.3814,25.4059722 C17.2304,26.6463889 23.7842,22.08375 25.0208,15.2172222 C26.2556,8.35069444 21.7088,1.77305556 14.8616,0.53625 C14.1038,0.397222222 13.3496,0.330416667 12.6044,0.330416667 C6.6284,0.330416667 1.3238,4.61680556 0.2258,10.7268056 Z" id="path-57"></path>
        <path d="M1.92363636,2.70073077 C10.7890909,7.83048901 10.8272727,45.6153608 10.8272727,45.6153608 C16.2454545,32.9141374 18.2127273,2.37649817 18.2127273,2.37649817 C18.2127273,2.37649817 7.52,0.331478022 2.53454545,0.331478022 C-0.125454545,0.333289377 -1.15818182,0.912923077 1.92363636,2.70073077 Z" id="path-59"></path>
        <path d="M10.8524375,2.72051724 C9.40071875,4.03712644 8.29990625,5.35373563 6.70925,5.0758046 C3.39078125,4.50747126 3.99284375,1.34511494 3.99284375,1.34511494 C0.083,3.93557471 -1.71428125,13.4244253 2.1955625,10.8375287 C6.11075,8.24528736 17.2435625,3.63091954 12.7316563,9.38551724 C8.2233125,15.1383333 10.9397187,18.8814943 14.2492813,19.4427011 C15.3144687,19.6279885 17.1919062,19.2787931 19.2065,18.9260345 C23.4512187,18.1848851 28.3158125,17.441954 27.5053438,21.7302874 C26.303,28.0603448 38.9623438,33.5067241 50.0898125,28.8977011 C61.22975,24.2851149 51.2921563,22.5676437 47.9754688,22.0028736 C46.9655,21.8264943 45.2822188,21.8407471 43.4475313,21.8514368 C39.2722813,21.8799425 34.3097188,21.9084483 34.7265313,19.7099425 C35.3250313,16.5475862 35.9235313,13.3834483 29.2955,12.2414368 C26.6895312,11.7942529 24.5039375,11.9225287 22.8455938,12.049023 C20.2912812,12.2485632 18.99275,12.4463218 19.3579062,10.5293103 C19.9581875,7.3633908 24.4665313,1.61057471 17.8402813,0.466781609 C17.289875,0.370574713 16.7750938,0.326034483 16.2977188,0.326034483 C13.7736875,0.326034483 12.1687813,1.52327586 10.8524375,2.72051724 Z" id="path-61"></path>
        <path d="M0.0535714286,2.54314286 C-0.192857143,4.01275325 0.721428571,5.41425974 2.09821429,5.67950649 L95.2410714,23.5836623 C95.3964286,23.6123377 95.55,23.6266753 95.6964286,23.6266753 C96.9,23.6266753 97.9696429,22.7108571 98.1875,21.4061299 C98.4357143,19.9436883 97.5214286,18.5403896 96.1464286,18.2751429 L3.00178571,0.370987013 C2.84821429,0.342311688 2.69642857,0.329766234 2.54821429,0.329766234 C1.32321429,0.329766234 0.275,1.24020779 0.0535714286,2.54314286 Z" id="path-63"></path>
        <path d="M0.0553571429,2.54314286 C-0.191071429,4.01275325 0.721428571,5.41425974 2.09821429,5.67950649 L95.2428571,23.5854545 C95.3964286,23.6141299 95.5517857,23.6266753 95.6964286,23.6266753 C96.9,23.6266753 97.9696429,22.7108571 98.1875,21.4061299 C98.4357143,19.9418961 97.5214286,18.5403896 96.1446429,18.2751429 L3.00178571,0.370987013 C2.84821429,0.342311688 2.69821429,0.329766234 2.54821429,0.329766234 C1.32321429,0.329766234 0.275,1.24020779 0.0553571429,2.54314286 Z" id="path-65"></path>
        <path d="M3.77296296,1.27424 C4.19944444,0.9768 4.6967037,0.82368 5.20666667,0.82368 C5.35366667,0.82368 5.50066667,0.83776 5.64948148,0.8624 L45.1543704,8.08016 C46.5191111,8.33008 47.4210741,9.64832 47.1760741,11.02992 L44.7986667,24.33728 C43.7823704,30.02384 40.3251481,35.30032 35.3035556,38.82032 C31.3490741,41.59056 26.7249259,43.06368 22.1897037,43.06368 C20.9701481,43.06368 19.756037,42.95808 18.5637037,42.7416 C12.9414074,41.71728 7.72018519,38.21664 4.23755556,33.14256 C0.749481481,28.072 -0.662444444,21.90144 0.352037037,16.22192 L2.73125926,2.91104 C2.84922222,2.24576 3.22488889,1.66144 3.77296296,1.27424 Z M19.4511481,37.75024 C20.3512963,37.91216 21.2695926,37.99136 22.1933333,37.99136 C25.7122593,37.99312 29.3255556,36.83328 32.4415926,34.65088 C36.3779259,31.8912 39.0801852,27.80624 39.8605556,23.43616 L41.7933333,12.62096 L7.22111111,6.30608 L5.29196296,17.12304 C4.51159259,21.48784 5.6277037,26.27504 8.36262963,30.25264 C11.0866667,34.22848 15.1337037,36.96176 19.4511481,37.75024 Z" id="path-67"></path>
        <path d="M3.77296296,1.276 C4.19944444,0.9768 4.69851852,0.82544 5.20485185,0.82544 C5.35185185,0.82544 5.50066667,0.83776 5.64766667,0.8624 L45.1561852,8.08016 C46.5172963,8.33008 47.4210741,9.65008 47.1760741,11.02992 L44.7986667,24.33904 C43.7841852,30.02384 40.3251481,35.29856 35.3035556,38.82032 C31.3508889,41.59056 26.7267407,43.06368 22.1897037,43.06368 C20.9683333,43.06368 19.756037,42.95808 18.5637037,42.7416 C12.9414074,41.71728 7.72018519,38.2184 4.23755556,33.14256 C0.751296296,28.072 -0.662444444,21.90144 0.352037037,16.22192 L2.73125926,2.91104 C2.85103704,2.244 3.2267037,1.66144 3.77296296,1.276 Z M19.4511481,37.75024 C20.3531111,37.91392 21.2695926,37.99136 22.1933333,37.99136 C25.7122593,37.99136 29.3255556,36.83328 32.4415926,34.65264 C36.3779259,31.89296 39.0801852,27.808 39.8605556,23.43792 L41.7933333,12.62096 L7.22292593,6.30608 L5.29196296,17.12304 C4.50977778,21.48784 5.6277037,26.27504 8.36262963,30.25264 C11.0884815,34.22672 15.1337037,36.96176 19.4511481,37.75024 Z" id="path-69"></path>
        <path d="M12.2652,1.28387166 L0.5688,14.8303636 C-0.334588235,15.8783102 -0.0906352941,17.3633583 1.11769412,18.1479465 C1.60750588,18.4698289 2.18308235,18.6234545 2.74912941,18.6234545 C3.57818824,18.6234545 4.40152941,18.2942567 4.93517647,17.6742674 L16.6296706,4.12594652 C17.5349647,3.078 17.2929176,1.59295187 16.0807765,0.810192513 C15.5909647,0.490139037 15.0172941,0.334684492 14.4474353,0.334684492 C13.6183765,0.334684492 12.7988471,0.663882353 12.2652,1.28387166 Z" id="path-71"></path>
        <path d="M0.736517647,1.2106125 C-0.254541176,2.3122125 -0.2088,4.04685 0.848964706,5.083425 L12.7645412,16.8166125 C13.2696,17.31195 13.9156941,17.5624875 14.5579765,17.5624875 C15.2536235,17.5624875 15.9492706,17.2717875 16.4619529,16.7018625 C17.4549176,15.6002625 17.4072706,13.865625 16.3533176,12.82905 L4.43583529,1.09395 C3.93077647,0.5967 3.28658824,0.3499875 2.64430588,0.3499875 C1.94675294,0.3499875 1.25110588,0.6406875 0.736517647,1.2106125 Z" id="path-73"></path>
        <path d="M2.75294118,0.306666667 C1.24538824,0.306666667 0.0237176471,1.05333333 0.0237176471,1.97333333 C0.0237176471,2.89166667 1.24538824,3.64 2.75294118,3.64 L14.4474353,3.64 C15.9588,3.64 17.1785647,2.89166667 17.1785647,1.97333333 C17.1785647,1.05333333 15.9588,0.306666667 14.4474353,0.306666667 L2.75294118,0.306666667 Z" id="path-75"></path>
        <path d="M15.8543316,0.1908 C15.3751658,0.1908 14.8941711,0.36675 14.4771872,0.7320375 L1.35682353,12.3868125 C0.777069519,12.9031875 0.460673797,13.6834875 0.44055615,14.4829125 L0.44055615,14.6550375 C0.455187166,15.1943625 0.603326203,15.7336875 0.895946524,16.1965125 C1.34767914,16.9117875 2.03716578,17.2866375 2.73762567,17.2866375 C3.21496257,17.2866375 3.69961497,17.108775 4.1111123,16.7454 L17.2314759,5.090625 C18.2446738,4.1898375 18.449508,2.481975 17.6923529,1.280925 C17.2424492,0.569475 16.5547914,0.1908 15.8598182,0.1908 C15.8579893,0.1908 15.8561604,0.1908 15.8543316,0.1908 Z" id="path-77"></path>
        <path d="M1.956,0.676684492 C1.00971429,1.368 0.690857143,2.88596791 1.24971429,4.06559358 L7.55142857,17.4035936 C7.92,18.1881818 8.58857143,18.6234545 9.26742857,18.6234545 C9.612,18.6234545 9.96,18.5155508 10.2771429,18.2796257 C11.2251429,17.5919679 11.5422857,16.0758289 10.9834286,14.8962032 L4.68171429,1.55637433 C4.31142857,0.773614973 3.64628571,0.336513369 2.96228571,0.336513369 C2.61942857,0.336513369 2.27314286,0.444417112 1.956,0.676684492 Z" id="path-79"></path>
        <path d="M0.138070588,1.7312 C-0.298376471,2.7872 0.559270588,3.8992 2.04204706,4.2096 L13.5840706,6.6128 C13.8470824,6.6672 14.1139059,6.6944 14.3712,6.6944 C15.5909647,6.6944 16.7059059,6.128 17.0604,5.2576 C17.5006588,4.2 16.6430118,3.088 15.1583294,2.7792 L3.61821176,0.376 C3.34948235,0.3216 3.08265882,0.2944 2.81964706,0.2944 C1.60369412,0.2944 0.496376471,0.8624 0.138070588,1.7312 Z" id="path-81"></path>
        <path d="M3.77296296,0.773957 C4.19944444,0.477773 4.69851852,0.322629 5.20666667,0.322629 C5.35366667,0.322629 5.50066667,0.336733 5.64766667,0.363178 L45.1507407,7.586189 C45.8095185,7.707836 46.3866296,8.088644 46.7659259,8.636937 C47.1488519,9.195808 47.2958519,9.876326 47.1760741,10.540977 L44.795037,23.872783 C43.7769259,29.561984 40.3215185,34.850984 35.3017407,38.376984 C31.3472593,41.157235 26.7212963,42.634629 22.1860741,42.634629 C20.9665185,42.634629 19.7578519,42.528849 18.5655185,42.310237 C6.72385185,40.138221 -1.77674074,27.723175 0.361111111,15.740064 L2.73307407,2.411784 C2.85466667,1.748896 3.22851852,1.161817 3.77296296,0.773957 Z M19.4565926,37.312132 C20.3531111,37.474328 21.2677778,37.555426 22.1897037,37.555426 C25.7013704,37.555426 29.3219259,36.391846 32.437963,34.203963 C36.3742963,31.439579 39.0783704,27.345893 39.8551111,22.970127 L41.7915185,12.136492 L7.22837037,5.814374 L5.30103704,16.64272 C3.66588889,25.799742 10.4115556,35.654912 19.4565926,37.312132 Z" id="path-83"></path>
        <path d="M3.77296296,0.773957 C4.19944444,0.479536 4.69851852,0.322629 5.20666667,0.322629 C5.35185185,0.322629 5.49885185,0.336733 5.64585185,0.363178 L45.1507407,7.586189 C45.8095185,7.707836 46.3866296,8.086881 46.7659259,8.6387 C47.147037,9.197571 47.2958519,9.878089 47.1760741,10.539214 L44.7968519,23.872783 C43.7769259,29.561984 40.3215185,34.852747 35.3017407,38.376984 C31.3490741,41.157235 26.7212963,42.634629 22.1842593,42.634629 C20.9683333,42.634629 19.7578519,42.530612 18.5673333,42.310237 C6.72203704,40.139984 -1.77674074,27.724938 0.361111111,15.740064 L2.73307407,2.411784 C2.85285185,1.748896 3.22851852,1.161817 3.77296296,0.773957 Z M19.4547778,37.312132 C20.3531111,37.476091 21.2677778,37.555426 22.1897037,37.555426 C25.7013704,37.555426 29.3219259,36.393609 32.4397778,34.203963 C36.3742963,31.439579 39.0783704,27.345893 39.8551111,22.970127 L41.7915185,12.136492 L7.22837037,5.814374 L5.29922222,16.64272 C3.6677037,25.799742 10.4097407,35.654912 19.4547778,37.312132 Z" id="path-85"></path>
    </defs>
    <g id="Page-1" stroke="none" stroke-width="1" fill="none" fill-rule="evenodd">
        <g id="768-Promopage" transform="translate(-198.000000, -271.000000)">
            <g id="couple" transform="translate(198.000000, 271.000000)">
                <g id="Group-3" transform="translate(45.000000, 82.000000)">
                    <mask id="mask-2" fill="white">
                        <use xlink:href="#path-1"></use>
                    </mask>
                    <g id="Clip-2"></g>
                    <polygon id="Fill-1" fill="#713206" mask="url(#mask-2)" points="-8.89805128 80.5300211 146.14041 80.5300211 146.14041 -8.5853775 -8.89805128 -8.5853775"></polygon>
                </g>
                <g id="Group-6" transform="translate(52.000000, 24.000000)">
                    <mask id="mask-4" fill="white">
                        <use xlink:href="#path-3"></use>
                    </mask>
                    <g id="Clip-5"></g>
                    <polygon id="Fill-4" fill="#EDAE83" mask="url(#mask-4)" points="-8.85672727 143.569772 124.097818 143.569772 124.097818 -8.62496526 -8.85672727 -8.62496526"></polygon>
                </g>
                <path d="M107.757566,121 C100.376765,121 93.8147086,118.756602 90.3635405,114.98816 C89.7831639,114.354808 89.910985,113.436448 90.6520015,112.938101 C91.3895635,112.439753 92.4587692,112.544756 93.0460551,113.184774 C96.0463949,116.459869 102.430538,118.369924 109.305237,118.043248 C116.178209,117.719905 122.279073,115.2265 124.847585,111.688065 C125.350232,110.999711 126.405619,110.799706 127.193273,111.216384 C127.993019,111.64473 128.240024,112.544756 127.744286,113.229776 C124.559124,117.621569 117.56524,120.579988 109.491787,120.959999 C108.91141,120.988333 108.334488,121 107.757566,121" id="Fill-7" fill="#555555"></path>
                <g id="Group-11" transform="translate(90.000000, 111.000000)">
                    <mask id="mask-6" fill="white">
                        <use xlink:href="#path-5"></use>
                    </mask>
                    <g id="Clip-10"></g>
                    <polygon id="Fill-9" fill="#555555" mask="url(#mask-6)" points="-843.161391 4087.17086 1591.88209 4087.17086 1591.88209 -3536.25771 -843.161391 -3536.25771"></polygon>
                </g>
                <g id="Group-14" transform="translate(90.000000, 111.000000)">
                    <mask id="mask-8" fill="white">
                        <use xlink:href="#path-7"></use>
                    </mask>
                    <g id="Clip-13"></g>
                    <polygon id="Fill-12" fill="#555555" mask="url(#mask-8)" points="-8.90052174 19.1708571 48.1429565 19.1708571 48.1429565 -8.25771429 -8.90052174 -8.25771429"></polygon>
                </g>
                <path d="M88.9923216,82.7210112 C88.8406627,79.9610281 86.4857829,77.856041 83.7309236,78.0077068 C80.9710645,78.1593725 78.8545059,80.5126914 79.0078314,83.2693412 C79.1594903,86.0276576 81.5177033,88.140978 84.2742292,87.9926456 C87.0307551,87.8359799 89.1439805,85.4809943 88.9923216,82.7210112" id="Fill-15" fill="#555555"></path>
                <g id="Group-19" transform="translate(78.000000, 77.000000)">
                    <mask id="mask-10" fill="white">
                        <use xlink:href="#path-9"></use>
                    </mask>
                    <g id="Clip-18"></g>
                    <polygon id="Fill-17" fill="#555555" mask="url(#mask-10)" points="-797.883429 4119.74229 1543.83086 4119.74229 1543.83086 -3503.68629 -797.883429 -3503.68629"></polygon>
                </g>
                <g id="Group-22" transform="translate(78.000000, 77.000000)">
                    <mask id="mask-12" fill="white">
                        <use xlink:href="#path-11"></use>
                    </mask>
                    <g id="Clip-21"></g>
                    <polygon id="Fill-20" fill="#555555" mask="url(#mask-12)" points="-7.59771429 19.1708571 19.8308571 19.1708571 19.8308571 -8.25771429 -7.59771429 -8.25771429"></polygon>
                </g>
                <g id="Group-25" transform="translate(40.000000, 76.000000)">
                    <mask id="mask-14" fill="white">
                        <use xlink:href="#path-13"></use>
                    </mask>
                    <g id="Clip-24"></g>
                    <polygon id="Fill-23" fill="#EDAE83" mask="url(#mask-14)" points="-8.9776 34.6359722 34.2224 34.6359722 34.2224 -8.69736111 -8.9776 -8.69736111"></polygon>
                </g>
                <path d="M135.992473,77.7249587 C135.842479,74.9696011 133.485897,72.8559935 130.727662,73.0076799 C127.971095,73.1593662 125.854504,75.5163388 126.007832,78.2750301 C126.15616,81.0337215 128.514408,83.1439954 131.275976,82.992309 C134.032544,82.8406227 136.142468,80.4836501 135.992473,77.7249587" id="Fill-26" fill="#555555"></path>
                <g id="Group-30" transform="translate(126.000000, 73.000000)">
                    <mask id="mask-16" fill="white">
                        <use xlink:href="#path-15"></use>
                    </mask>
                    <g id="Clip-29"></g>
                    <polygon id="Fill-28" fill="#555555" mask="url(#mask-16)" points="-844.169143 4123.17086 1497.54514 4123.17086 1497.54514 -3500.25771 -844.169143 -3500.25771"></polygon>
                </g>
                <g id="Group-33" transform="translate(126.000000, 73.000000)">
                    <mask id="mask-18" fill="white">
                        <use xlink:href="#path-17"></use>
                    </mask>
                    <g id="Clip-32"></g>
                    <polygon id="Fill-31" fill="#555555" mask="url(#mask-18)" points="-7.59771429 19.1708571 19.8308571 19.1708571 19.8308571 -8.25771429 -7.59771429 -8.25771429"></polygon>
                </g>
                <g id="Group-36" transform="translate(159.000000, 70.000000)">
                    <mask id="mask-20" fill="white">
                        <use xlink:href="#path-19"></use>
                    </mask>
                    <g id="Clip-35"></g>
                    <polygon id="Fill-34" fill="#EDAE83" mask="url(#mask-20)" points="-8.9776 34.6359722 34.2224 34.6359722 34.2224 -8.69736111 -8.9776 -8.69736111"></polygon>
                </g>
                <g id="Group-39" transform="translate(123.000000, 22.000000)">
                    <mask id="mask-22" fill="white">
                        <use xlink:href="#path-21"></use>
                    </mask>
                    <g id="Clip-38"></g>
                    <polygon id="Fill-37" fill="#713206" mask="url(#mask-22)" points="-9.01169231 55.6839286 56.0652308 55.6839286 56.0652308 -8.60178571 -9.01169231 -8.60178571"></polygon>
                </g>
                <g id="Group-42" transform="translate(49.000000, 12.000000)">
                    <mask id="mask-24" fill="white">
                        <use xlink:href="#path-23"></use>
                    </mask>
                    <g id="Clip-41"></g>
                    <polygon id="Fill-40" fill="#713206" mask="url(#mask-24)" points="-7.86906122 73.2917797 95.1105306 73.2917797 95.1105306 -8.57262712 -7.86906122 -8.57262712"></polygon>
                </g>
                <g id="Group-45" transform="translate(89.000000, 27.000000)">
                    <mask id="mask-26" fill="white">
                        <use xlink:href="#path-25"></use>
                    </mask>
                    <g id="Clip-44"></g>
                    <polygon id="Fill-43" fill="#713206" mask="url(#mask-26)" points="-7.65527273 59.597934 45.8901818 59.597934 45.8901818 -8.65151577 -7.65527273 -8.65151577"></polygon>
                </g>
                <g id="Group-48" transform="translate(62.000000, 27.000000)">
                    <mask id="mask-28" fill="white">
                        <use xlink:href="#path-27"></use>
                    </mask>
                    <g id="Clip-47"></g>
                    <polygon id="Fill-46" fill="#9A4B1F" mask="url(#mask-28)" points="-9.04325926 34.6359722 56.2900741 34.6359722 56.2900741 -8.69736111 -9.04325926 -8.69736111"></polygon>
                </g>
                <g id="Group-51" transform="translate(166.000000, 87.000000)">
                    <mask id="mask-30" fill="white">
                        <use xlink:href="#path-29"></use>
                    </mask>
                    <g id="Clip-50"></g>
                    <polygon id="Fill-49" fill="#FE574A" mask="url(#mask-30)" points="-9.05818182 27.7678396 27.3054545 27.7678396 27.3054545 -8.80970053 -9.05818182 -8.80970053"></polygon>
                </g>
                <g id="Group-54" transform="translate(40.000000, 95.000000)">
                    <mask id="mask-32" fill="white">
                        <use xlink:href="#path-31"></use>
                    </mask>
                    <g id="Clip-53"></g>
                    <polygon id="Fill-52" fill="#FE574A" mask="url(#mask-32)" points="-9.05818182 27.7678396 27.3054545 27.7678396 27.3054545 -8.80970053 -9.05818182 -8.80970053"></polygon>
                </g>
                <g id="Group-57" transform="translate(205.000000, 14.000000)">
                    <mask id="mask-34" fill="white">
                        <use xlink:href="#path-33"></use>
                    </mask>
                    <g id="Clip-56"></g>
                    <polygon id="Fill-55" fill="#EDAE83" mask="url(#mask-34)" points="-8.85672727 143.569772 124.097818 143.569772 124.097818 -8.62496526 -8.85672727 -8.62496526"></polygon>
                </g>
                <g id="Group-60" transform="translate(211.000000, 89.000000)">
                    <mask id="mask-36" fill="white">
                        <use xlink:href="#path-35"></use>
                    </mask>
                    <g id="Clip-59"></g>
                    <polygon id="Fill-58" fill="#172A38" mask="url(#mask-36)" points="-8.72146915 67.5183061 96.8646428 67.5183061 96.8646428 -6.18489796 -8.72146915 -6.18489796"></polygon>
                </g>
                <g id="Group-63" transform="translate(234.000000, 95.000000)">
                    <mask id="mask-38" fill="white">
                        <use xlink:href="#path-37"></use>
                    </mask>
                    <g id="Clip-62"></g>
                    <polygon id="Fill-61" fill="#EDAE83" mask="url(#mask-38)" points="-9.04325926 37.4740654 56.2900741 37.4740654 56.2900741 -8.52157734 -9.04325926 -8.52157734"></polygon>
                </g>
                <path d="M261.898151,119 C260.103533,119 258.250189,118.803553 256.381299,118.403103 C248.320201,116.676636 241.722088,111.508568 239.158842,104.912481 C238.759847,103.883023 239.138115,102.666563 240.006925,102.190557 C240.863643,101.71455 241.899996,102.160334 242.297264,103.19357 C244.363061,108.510862 250.130364,112.89692 256.996202,114.364606 C263.856857,115.834181 270.558606,114.134158 274.058024,110.020104 C274.73338,109.219205 275.831914,109.22676 276.500362,110.029549 C277.172264,110.836115 277.165355,112.133799 276.486544,112.932809 C273.156397,116.852305 267.838179,119 261.898151,119" id="Fill-64" fill="#555555"></path>
                <g id="Group-68" transform="translate(239.000000, 102.000000)">
                    <mask id="mask-40" fill="white">
                        <use xlink:href="#path-39"></use>
                    </mask>
                    <g id="Clip-67"></g>
                    <polygon id="Fill-66" fill="#555555" mask="url(#mask-40)" points="-991.117913 4569.31249 1443.92557 4569.31249 1443.92557 -3935.57501 -991.117913 -3935.57501"></polygon>
                </g>
                <g id="Group-71" transform="translate(239.000000, 102.000000)">
                    <mask id="mask-42" fill="white">
                        <use xlink:href="#path-41"></use>
                    </mask>
                    <g id="Clip-70"></g>
                    <polygon id="Fill-69" fill="#555555" mask="url(#mask-42)" points="-8.90052174 27.1249875 48.1429565 27.1249875 48.1429565 -9.2125125 -8.90052174 -9.2125125"></polygon>
                </g>
                <path d="M244.919214,66.8861102 C245.410886,64.1661846 243.607534,61.5679223 240.890838,61.0812689 C238.169143,60.5879491 235.572448,62.3912331 235.080777,65.114492 C234.589105,67.8277511 236.392457,70.4310133 239.115819,70.9193333 C241.829182,71.4109865 244.427543,69.6043692 244.919214,66.8861102" id="Fill-72" fill="#555555"></path>
                <g id="Group-76" transform="translate(235.000000, 60.000000)">
                    <mask id="mask-44" fill="white">
                        <use xlink:href="#path-43"></use>
                    </mask>
                    <g id="Clip-75"></g>
                    <polygon id="Fill-74" fill="#555555" mask="url(#mask-44)" points="-948.740571 4135.17086 1392.97371 4135.17086 1392.97371 -3488.25771 -948.740571 -3488.25771"></polygon>
                </g>
                <g id="Group-79" transform="translate(235.000000, 60.000000)">
                    <mask id="mask-46" fill="white">
                        <use xlink:href="#path-45"></use>
                    </mask>
                    <g id="Clip-78"></g>
                    <polygon id="Fill-77" fill="#555555" mask="url(#mask-46)" points="-7.59771429 19.1708571 19.8308571 19.1708571 19.8308571 -8.25771429 -7.59771429 -8.25771429"></polygon>
                </g>
                <g id="Group-82" transform="translate(194.000000, 51.000000)">
                    <mask id="mask-48" fill="white">
                        <use xlink:href="#path-47"></use>
                    </mask>
                    <g id="Clip-81"></g>
                    <polygon id="Fill-80" fill="#EDAE83" mask="url(#mask-48)" points="-8.9776 34.6359722 34.2224 34.6359722 34.2224 -8.69736111 -8.9776 -8.69736111"></polygon>
                </g>
                <path d="M293.917839,75.8915663 C294.414543,73.1697018 292.607741,70.5711796 289.887539,70.0794772 C287.170669,69.5927751 284.573809,71.3912392 284.082106,74.1097701 C283.585402,76.828301 285.39387,79.4334904 288.112406,79.9201924 C290.825942,80.4085613 293.427802,78.6050968 293.917839,75.8915663" id="Fill-83" fill="#555555"></path>
                <g id="Group-87" transform="translate(283.000000, 70.000000)">
                    <mask id="mask-50" fill="white">
                        <use xlink:href="#path-49"></use>
                    </mask>
                    <g id="Clip-86"></g>
                    <polygon id="Fill-85" fill="#555555" mask="url(#mask-50)" points="-995.026286 4126.59943 1346.688 4126.59943 1346.688 -3496.82914 -995.026286 -3496.82914"></polygon>
                </g>
                <g id="Group-90" transform="translate(283.000000, 70.000000)">
                    <mask id="mask-52" fill="white">
                        <use xlink:href="#path-51"></use>
                    </mask>
                    <g id="Clip-89"></g>
                    <polygon id="Fill-88" fill="#555555" mask="url(#mask-52)" points="-7.59771429 19.1708571 19.8308571 19.1708571 19.8308571 -8.25771429 -7.59771429 -8.25771429"></polygon>
                </g>
                <g id="Group-93" transform="translate(228.000000, 0.000000)">
                    <mask id="mask-54" fill="white">
                        <use xlink:href="#path-53"></use>
                    </mask>
                    <g id="Clip-92"></g>
                    <polygon id="Fill-91" fill="#172A38" mask="url(#mask-54)" points="-8.65567213 57.6170778 117.850443 57.6170778 117.850443 -8.66662222 -8.65567213 -8.66662222"></polygon>
                </g>
                <g id="Group-96" transform="translate(206.000000, 20.000000)">
                    <mask id="mask-56" fill="white">
                        <use xlink:href="#path-55"></use>
                    </mask>
                    <g id="Clip-95"></g>
                    <polygon id="Fill-94" fill="#172A38" mask="url(#mask-56)" points="-7.756 59.597934 35.994 59.597934 35.994 -8.65151577 -7.756 -8.65151577"></polygon>
                </g>
                <g id="Group-99" transform="translate(313.000000, 71.000000)">
                    <mask id="mask-58" fill="white">
                        <use xlink:href="#path-57"></use>
                    </mask>
                    <g id="Clip-98"></g>
                    <polygon id="Fill-97" fill="#EDAE83" mask="url(#mask-58)" points="-8.9776 34.6359722 34.2224 34.6359722 34.2224 -8.69736111 -8.9776 -8.69736111"></polygon>
                </g>
                <g id="Group-102" transform="translate(308.000000, 39.000000)">
                    <mask id="mask-60" fill="white">
                        <use xlink:href="#path-59"></use>
                    </mask>
                    <g id="Clip-101"></g>
                    <polygon id="Fill-100" fill="#172A38" mask="url(#mask-60)" points="-9.05818182 54.6721374 27.3054545 54.6721374 27.3054545 -8.72529853 -9.05818182 -8.72529853"></polygon>
                </g>
                <g id="Group-105" transform="translate(248.000000, 7.000000)">
                    <mask id="mask-62" fill="white">
                        <use xlink:href="#path-61"></use>
                    </mask>
                    <g id="Clip-104"></g>
                    <polygon id="Fill-103" fill="#315063" mask="url(#mask-62)" points="-8.8945 39.5214368 64.13675 39.5214368 64.13675 -8.58201149 -8.8945 -8.58201149"></polygon>
                </g>
                <path d="M311.472559,67 C311.32645,67 311.173215,66.9852307 311.019979,66.9575383 L218.07889,48.5125375 C216.706895,48.2393056 215.792826,46.793761 216.040498,45.2817546 C216.286388,43.7752868 217.571074,42.7783595 218.982269,43.0423606 L311.921576,61.4873614 C313.293571,61.7587471 314.205858,63.2042917 313.959968,64.7126057 C313.740805,66.0566114 312.6735,67 311.472559,67" id="Fill-106" fill="#555555"></path>
                <g id="Group-110" transform="translate(216.000000, 43.000000)">
                    <mask id="mask-64" fill="white">
                        <use xlink:href="#path-63"></use>
                    </mask>
                    <g id="Clip-109"></g>
                    <polygon id="Fill-108" fill="#555555" mask="url(#mask-64)" points="-969.628571 4341.05525 1469.65714 4341.05525 1469.65714 -3628.89281 -969.628571 -3628.89281"></polygon>
                </g>
                <g id="Group-113" transform="translate(216.000000, 43.000000)">
                    <mask id="mask-66" fill="white">
                        <use xlink:href="#path-65"></use>
                    </mask>
                    <g id="Clip-112"></g>
                    <polygon id="Fill-111" fill="#555555" mask="url(#mask-66)" points="-8.91428571 32.5877143 107.157143 32.5877143 107.157143 -8.63306494 -8.91428571 -8.63306494"></polygon>
                </g>
                <path d="M222.162885,49.5807362 L220.241328,60.5924094 C219.46222,65.035779 220.575747,69.9073605 223.298104,73.9565602 C226.013229,78.0039682 230.042533,80.7864493 234.344796,81.5891225 C238.654289,82.3864207 243.365086,81.2397446 247.282315,78.4339717 C251.203159,75.6246155 253.896592,71.4661232 254.670276,67.0173785 L256.599064,56.007497 L222.162885,49.5807362 Z M237.070768,87 C235.856011,87 234.646677,86.8907074 233.459036,86.6703306 C227.858864,85.6275721 222.658187,82.0657097 219.191069,76.8985009 C215.716721,71.7366671 214.308543,65.4550325 215.320841,59.6732769 L217.688893,46.1227913 C217.808199,45.4455358 218.18058,44.8506976 218.726497,44.4583194 C219.274222,44.0677329 219.941254,43.9226067 220.595632,44.039066 L259.945067,51.3867509 C261.30263,51.639378 262.202851,52.9813473 261.960623,54.3878171 L259.590763,67.936511 C258.580274,73.7236416 255.134848,79.0951021 250.134824,82.6784647 C246.195903,85.4985711 241.588143,87 237.070768,87 Z" id="Fill-114" fill="#555555"></path>
                <g id="Group-118" transform="translate(214.000000, 43.000000)">
                    <mask id="mask-68" fill="white">
                        <use xlink:href="#path-67"></use>
                    </mask>
                    <g id="Clip-117"></g>
                    <polygon id="Fill-116" fill="#555555" mask="url(#mask-68)" points="-983.598815 4263.54368 1495.43822 4263.54368 1495.43822 -3563.17632 -983.598815 -3563.17632"></polygon>
                </g>
                <g id="Group-121" transform="translate(214.000000, 43.000000)">
                    <mask id="mask-70" fill="white">
                        <use xlink:href="#path-69"></use>
                    </mask>
                    <g id="Clip-120"></g>
                    <polygon id="Fill-119" fill="#555555" mask="url(#mask-70)" points="-9.04325926 51.86368 56.2900741 51.86368 56.2900741 -7.97632 -9.04325926 -7.97632"></polygon>
                </g>
                <g id="Group-124" transform="translate(19.000000, 139.000000)">
                    <mask id="mask-72" fill="white">
                        <use xlink:href="#path-71"></use>
                    </mask>
                    <g id="Clip-123"></g>
                    <polygon id="Fill-122" fill="#FDCF4D" mask="url(#mask-72)" points="-9.50569412 27.7678396 26.7060706 27.7678396 26.7060706 -8.80970053 -9.50569412 -8.80970053"></polygon>
                </g>
                <g id="Group-127" transform="translate(19.000000, 37.000000)">
                    <mask id="mask-74" fill="white">
                        <use xlink:href="#path-73"></use>
                    </mask>
                    <g id="Clip-126"></g>
                    <polygon id="Fill-125" fill="#FDCF4D" mask="url(#mask-74)" points="-9.50569412 27.1249875 26.7060706 27.1249875 26.7060706 -9.2125125 -9.50569412 -9.2125125"></polygon>
                </g>
                <g id="Group-130" transform="translate(0.000000, 92.000000)">
                    <mask id="mask-76" fill="white">
                        <use xlink:href="#path-75"></use>
                    </mask>
                    <g id="Clip-129"></g>
                    <polygon id="Fill-128" fill="#FDCF4D" mask="url(#mask-76)" points="-9.50569412 11.9716667 26.7060706 11.9716667 26.7060706 -8.02833333 -9.50569412 -8.02833333"></polygon>
                </g>
                <g id="Group-133" transform="translate(353.000000, 31.000000)">
                    <mask id="mask-78" fill="white">
                        <use xlink:href="#path-77"></use>
                    </mask>
                    <g id="Clip-132"></g>
                    <polygon id="Fill-131" fill="#FDCF4D" mask="url(#mask-78)" points="-8.70565775 26.8491375 27.2939572 26.8491375 27.2939572 -9.3736125 -8.70565775 -9.3736125"></polygon>
                </g>
                <g id="Group-136" transform="translate(323.000000, 130.000000)">
                    <mask id="mask-80" fill="white">
                        <use xlink:href="#path-79"></use>
                    </mask>
                    <g id="Clip-135"></g>
                    <polygon id="Fill-134" fill="#FDCF4D" mask="url(#mask-80)" points="-7.59771429 27.7678396 19.8308571 27.7678396 19.8308571 -8.80970053 -7.59771429 -8.80970053"></polygon>
                </g>
                <g id="Group-139" transform="translate(354.000000, 91.000000)">
                    <mask id="mask-82" fill="white">
                        <use xlink:href="#path-81"></use>
                    </mask>
                    <g id="Clip-138"></g>
                    <polygon id="Fill-137" fill="#FDCF4D" mask="url(#mask-82)" points="-9.50569412 14.6928 26.7060706 14.6928 26.7060706 -7.7072 -9.50569412 -7.7072"></polygon>
                </g>
                <g id="Group-144" transform="translate(121.000000, 54.000000)">
                    <path d="M54.4175339,183.385959 C50.7546716,182.889457 -5.61567706,142.795584 0.599442202,98.2385312 C3.81379083,75.2054641 20.5440661,62.041932 38.1624697,64.4390224 C56.2151486,66.8912797 65.7353872,94.1294875 66.5060477,94.2362622 C67.2571303,94.3394776 84.5907633,70.7511825 102.636323,73.2034399 C120.260066,75.5987507 132.757938,92.7396378 129.541809,115.776264 C123.32847,160.327978 57.4343229,183.797041 54.4175339,183.385959" id="Fill-140" fill="#FE574A"></path>
                    <path d="M154.014286,5.86957931 L152.124121,16.7979626 C150.520506,26.0428659 157.136084,35.9889225 166.00669,37.6617251 C170.231974,38.4536369 174.880855,37.3147075 178.739497,34.5261101 C182.599919,31.7339536 185.251846,27.6017754 186.013607,23.184865 L187.912672,12.2493634 L154.014286,5.86957931 Z M168.683534,43.036048 C167.489277,43.036048 166.302139,42.9274938 165.13458,42.7068263 C153.521277,40.5161668 145.182837,27.9843845 147.279461,15.8868191 L149.605681,2.43499541 C149.724928,1.76409483 150.09335,1.17149564 150.627295,0.783547818 C151.1648,0.3956 151.825112,0.247895097 152.464066,0.365347188 L191.205332,7.65805434 C191.851406,7.77906559 192.419167,8.16345425 192.789369,8.7204619 C193.16491,9.2810287 193.309075,9.96972506 193.193387,10.6388461 L190.858268,24.097788 C189.859791,29.8404835 186.46924,35.1792149 181.546268,38.7383692 C177.669828,41.5429828 173.131295,43.036048 168.683534,43.036048 Z" id="Fill-142" fill="#555555"></path>
                </g>
                <g id="Group-147" transform="translate(267.000000, 54.000000)">
                    <mask id="mask-84" fill="white">
                        <use xlink:href="#path-83"></use>
                    </mask>
                    <g id="Clip-146"></g>
                    <polygon id="Fill-145" fill="#555555" mask="url(#mask-84)" points="-1038.04326 4261.49363 1440.99378 4261.49363 1440.99378 -3578.56737 -1038.04326 -3578.56737"></polygon>
                </g>
                <g id="Group-150" transform="translate(267.000000, 54.000000)">
                    <mask id="mask-86" fill="white">
                        <use xlink:href="#path-85"></use>
                    </mask>
                    <g id="Clip-149"></g>
                    <polygon id="Fill-148" fill="#555555" mask="url(#mask-86)" points="-9.04325926 51.449629 56.2900741 51.449629 56.2900741 -8.492371 -9.04325926 -8.492371"></polygon>
                </g>
            </g>
        </g>
    </g>
</svg>